<svg width="20" height="21" viewBox="0 0 20 21" fill="none" xmlns="http://www.w3.org/2000/svg">
<path fill-rule="evenodd" clip-rule="evenodd" d="M3.68377 0.0513439C4.20771 -0.123304 4.77403 0.159856 4.94868 0.683799C5.12333 1.20774 4.84017 1.77406 4.31622 1.94871C3.07024 2.36404 2.36966 3.55331 2.19868 4.06625C2.02403 4.5902 1.45771 4.87336 0.933769 4.69871C0.409826 4.52406 0.126666 3.95774 0.301313 3.4338C0.588664 2.57175 1.62976 0.736015 3.68377 0.0513439ZM15.0513 0.683799C15.226 0.159856 15.7923 -0.123304 16.3162 0.0513439C18.3702 0.736015 19.4113 2.57175 19.6987 3.4338C19.8733 3.95774 19.5902 4.52406 19.0662 4.69871C18.5423 4.87336 17.976 4.5902 17.8013 4.06625C17.6303 3.55331 16.9298 2.36404 15.6838 1.94871C15.1598 1.77406 14.8767 1.20774 15.0513 0.683799ZM16.75 11V10.75C16.75 7.52006 14.1978 4.88621 11 4.75514V5.00003C11 5.55231 10.5523 6.00003 10 6.00003C9.44771 6.00003 9 5.55231 9 5.00003V4.75514C5.80223 4.88621 3.25 7.52006 3.25 10.75V11H3.5C4.05228 11 4.5 11.4477 4.5 12C4.5 12.5523 4.05228 13 3.5 13H3.29642C3.65539 15.8788 6.05369 18.1242 9 18.2449V18C9 17.4477 9.44771 17 10 17C10.5523 17 11 17.4477 11 18V18.2449C13.9463 18.1242 16.3446 15.8788 16.7036 13H16.5C15.9477 13 15.5 12.5523 15.5 12C15.5 11.4477 15.9477 11 16.5 11H16.75ZM9.25 2.75003C4.83172 2.75003 1.25 6.33175 1.25 10.75V11.5V12.25C1.25 16.6683 4.83172 20.25 9.25 20.25H10H10.75C15.1683 20.25 18.75 16.6683 18.75 12.25V11.5V10.75C18.75 6.33175 15.1683 2.75003 10.75 2.75003H10H9.25ZM14.5293 12.0661C14.528 12.5608 14.4022 12.9616 14.2482 12.9612L10.904 12.9795L10.904 12.9779C10.8821 12.978 10.755 12.9783 10.0204 12.9773C9.12891 12.9762 9.12986 12.6051 9.13048 12.3607L9.13048 12.3576L9.11818 7.47719C9.11879 7.23282 9.5191 7.03571 10.0123 7.03693C10.5055 7.03815 10.9049 7.23724 10.9043 7.48161L10.9072 11.1613L14.2527 11.1696C14.4067 11.17 14.5305 11.5714 14.5293 12.0661Z" fill="#A889C8"/>
</svg>
