<svg width="20" height="21" viewBox="0 0 20 21" fill="none" xmlns="http://www.w3.org/2000/svg">
<path d="M2.25 10.75C2.25 6.88401 5.38401 3.75 9.25 3.75H10H10.75C14.616 3.75 17.75 6.88401 17.75 10.75V11.5V12.25C17.75 16.116 14.616 19.25 10.75 19.25H10H9.25C5.38401 19.25 2.25 16.116 2.25 12.25V11.5V10.75Z" stroke="#A889C8" stroke-width="2" stroke-linejoin="round"/>
<path d="M14.0293 12.0648C14.0289 12.2244 14.0129 12.3613 13.9914 12.4626L11.4049 12.4767L11.4063 11.6626L13.9938 11.669C14.0146 11.7702 14.0297 11.9063 14.0293 12.0648Z" fill="#A889C8" stroke="#A889C8"/>
<path d="M10.4044 7.60799C10.41 7.61051 10.4153 7.61303 10.4204 7.61556C10.448 7.62931 10.4584 7.63849 10.4584 7.63841C10.4585 7.63838 10.4566 7.63666 10.4534 7.6329C10.4401 7.61719 10.4045 7.56481 10.4043 7.48201C10.4043 7.48147 10.4043 7.48092 10.4043 7.48038L10.4043 7.48201L10.4044 7.60799ZM10.4044 7.60799L10.4082 12.4778L10.9043 7.48161C10.9049 7.23724 10.5055 7.03815 10.0123 7.03693C9.51911 7.03571 9.11879 7.23282 9.11819 7.47719M10.4044 7.60799C10.3228 7.57141 10.1855 7.53736 10.0111 7.53693C9.83738 7.5365 9.70035 7.56958 9.61851 7.60558M9.61851 7.60558L9.61819 7.47843M9.61851 7.60558L9.63049 12.3563L9.63049 12.3588C9.63041 12.3908 9.63112 12.4138 9.63195 12.43M9.61851 7.60558C9.61251 7.60822 9.6068 7.61087 9.6014 7.61353C9.57375 7.62715 9.5633 7.63627 9.56323 7.63619C9.5632 7.63616 9.56506 7.63445 9.56827 7.63071C9.58178 7.61496 9.61798 7.56218 9.61819 7.47843M9.61819 7.47843L9.61819 7.47593L9.11819 7.47719M9.61819 7.47843L9.11819 7.47719M9.11819 7.47719L9.13049 12.3576M9.13049 12.3576L9.13048 12.3607C9.12986 12.6051 9.12892 12.9762 10.0204 12.9773C10.1752 12.9775 10.3031 12.9777 10.4086 12.9778L9.13049 12.3576ZM9.13049 12.3576L9.63195 12.43M9.63195 12.43C9.6111 12.422 9.60305 12.4163 9.60299 12.4164C9.60296 12.4165 9.6068 12.4193 9.6129 12.4262C9.62873 12.4439 9.63352 12.4627 9.63418 12.4626C9.63462 12.4625 9.63316 12.4537 9.63195 12.43Z" fill="#A889C8" stroke="#A889C8" stroke-linecap="round" stroke-linejoin="round"/>
<path d="M3 12H3.5M10 4.5V5" stroke="#A889C8" stroke-width="2" stroke-linecap="round"/>
<path d="M17 12H16.5M10 18.5V18" stroke="#A889C8" stroke-width="2" stroke-linecap="round"/>
<path d="M16 1C17.65 1.55 18.5208 3.0625 18.75 3.75" stroke="#A889C8" stroke-width="2" stroke-linecap="round"/>
<path d="M4 1C2.35 1.55 1.47917 3.0625 1.25 3.75" stroke="#A889C8" stroke-width="2" stroke-linecap="round"/>
</svg>
