<svg width="23" height="23" viewBox="0 0 23 23" fill="none" xmlns="http://www.w3.org/2000/svg">
<path d="M16.5 22.5H6.5C5.57174 22.5 4.6815 22.1313 4.02513 21.4749C3.36875 20.8185 3 19.9283 3 19V3H20V19C20 19.9283 19.6313 20.8185 18.9749 21.4749C18.3185 22.1313 17.4283 22.5 16.5 22.5ZM5 5V19C5 19.3978 5.15804 19.7794 5.43934 20.0607C5.72064 20.342 6.10218 20.5 6.5 20.5H16.5C16.8978 20.5 17.2794 20.342 17.5607 20.0607C17.842 19.7794 18 19.3978 18 19V5H5Z" fill="#333333"/>
<path d="M16.72 5H6.28003V2C6.28003 1.46957 6.49074 0.960859 6.86582 0.585786C7.24089 0.210714 7.7496 0 8.28003 0H14.72C15.2505 0 15.7592 0.210714 16.1342 0.585786C16.5093 0.960859 16.72 1.46957 16.72 2V5ZM8.28003 3H14.72V2H8.28003V3ZM6.50003 8.5H8.50003V18H6.50003V8.5ZM10.5 8.5H12.5V18H10.5V8.5ZM14.5 8.5H16.5V18H14.5V8.5Z" fill="#333333"/>
<path d="M1 3H22C22.6667 3 23 3.33333 23 4C23 4.66667 22.6667 5 22 5H1C0.333333 5 0 4.66667 0 4C0 3.33333 0.333333 3 1 3Z" fill="#333333"/>
</svg>
