<svg width="20" height="21" viewBox="0 0 20 21" fill="none" xmlns="http://www.w3.org/2000/svg">
<path d="M1.3271 10.8293L8.75473 2.41131C9.41585 1.66204 10.5842 1.66204 11.2453 2.41131L15 6.66667L18.6729 10.8293C19.0806 11.2913 18.6501 12.0034 18.0515 11.857C17.6551 11.7601 17.2727 12.0603 17.2727 12.4684V16.4545V18C17.2727 19.1046 16.3773 20 15.2727 20H12.875C12.3227 20 11.875 19.5523 11.875 19V14.5C11.875 13.6716 11.2034 13 10.375 13H9.625C8.79657 13 8.125 13.6716 8.125 14.5V19C8.125 19.5523 7.67728 20 7.125 20H4.72727C3.6227 20 2.72727 19.1046 2.72727 18V16.4545V12.4684C2.72727 12.0603 2.34488 11.7601 1.94847 11.857C1.3499 12.0034 0.91942 11.2913 1.3271 10.8293Z" fill="#A889C8" stroke="#A889C8" stroke-width="2" stroke-linejoin="round"/>
</svg>
