<svg width="20" height="20" viewBox="0 0 20 20" fill="none" xmlns="http://www.w3.org/2000/svg">
<path d="M10 0C10.6319 0 11.143 0.498882 11.143 1.11574V2.51126C11.143 3.12812 10.6319 3.62701 10 3.62701C9.36809 3.62701 8.85704 3.12812 8.85704 2.51126V1.11574C8.85704 0.81911 8.9779 0.535961 9.19199 0.32697C9.40608 0.117979 9.69613 0 10 0ZM10 15.8968C10.6319 15.8968 11.143 16.3957 11.143 17.0125V18.4081C11.143 19.0249 10.6319 19.5238 10 19.5238C9.36809 19.5238 8.85704 19.0249 8.85704 18.4081V17.0125C8.85704 16.3957 9.36809 15.8968 10 15.8968ZM20 9.76191C20 10.3788 19.4889 10.8776 18.857 10.8776H17.4275C16.7956 10.8776 16.2845 10.3788 16.2845 9.76191C16.2845 9.14505 16.7956 8.64616 17.4275 8.64616H18.857C19.4889 8.64616 20 9.14505 20 9.76191ZM3.71547 9.76191C3.71547 10.3788 3.20442 10.8776 2.57251 10.8776H1.14296C0.51105 10.8776 0 10.3788 0 9.76191C0 9.14505 0.51105 8.64616 1.14296 8.64616H2.57251C2.87638 8.64616 3.16644 8.76414 3.38052 8.97313C3.59461 9.18212 3.71547 9.46527 3.71547 9.76191ZM17.0718 2.85846C17.178 2.962 17.2622 3.08496 17.3197 3.2203C17.3772 3.35564 17.4068 3.50072 17.4068 3.64723C17.4068 3.79374 17.3772 3.93882 17.3197 4.07416C17.2622 4.20951 17.178 4.33246 17.0718 4.436L16.0601 5.42366C15.77 5.70681 15.3522 5.81467 14.9551 5.71355C14.7617 5.66223 14.5854 5.56244 14.4436 5.42408C14.3019 5.28572 14.1997 5.11359 14.1471 4.92477C14.0401 4.5405 14.154 4.12926 14.4441 3.84611L15.4558 2.85846C15.5619 2.7548 15.6878 2.67257 15.8265 2.61646C15.9651 2.56036 16.1137 2.53148 16.2638 2.53148C16.4139 2.53148 16.5625 2.56036 16.7012 2.61646C16.8398 2.67257 16.9658 2.7548 17.0718 2.85846ZM5.55594 14.1002C5.66213 14.2037 5.74636 14.3267 5.80384 14.462C5.86131 14.5973 5.89089 14.7424 5.89089 14.8889C5.89089 15.0354 5.86131 15.1805 5.80384 15.3159C5.74636 15.4512 5.66213 15.5742 5.55594 15.6777L4.5442 16.6654C4.09876 17.1002 3.37362 17.1002 2.92818 16.6654C2.48273 16.2305 2.48273 15.5226 2.92818 15.0878L3.93992 14.1002C4.04598 13.9965 4.17194 13.9143 4.31058 13.8582C4.44923 13.8021 4.59784 13.7732 4.74793 13.7732C4.89801 13.7732 5.04663 13.8021 5.18527 13.8582C5.32392 13.9143 5.44987 13.9965 5.55594 14.1002ZM17.0718 16.6654C16.9658 16.769 16.8398 16.8512 16.7012 16.9073C16.5625 16.9635 16.4139 16.9923 16.2638 16.9923C16.1137 16.9923 15.9651 16.9635 15.8265 16.9073C15.6878 16.8512 15.5619 16.769 15.4558 16.6654L14.4441 15.6777C13.9986 15.2429 13.9986 14.535 14.4441 14.1002C14.8895 13.6653 15.6146 13.6653 16.0601 14.1002L17.0718 15.0878C17.2859 15.2968 17.4068 15.5799 17.4068 15.8766C17.4068 16.1698 17.2859 16.4564 17.0718 16.6654ZM5.55594 5.42366C5.44987 5.52731 5.32392 5.60955 5.18527 5.66565C5.04663 5.72176 4.89801 5.75064 4.74793 5.75064C4.59784 5.75064 4.44923 5.72176 4.31058 5.66565C4.17194 5.60955 4.04598 5.52731 3.93992 5.42366L2.92818 4.436C2.48273 4.00117 2.48273 3.29329 2.92818 2.85846C3.37362 2.42362 4.09876 2.42362 4.5442 2.85846L5.55594 3.84611C5.77003 4.0551 5.89088 4.33825 5.89088 4.63488C5.89088 4.92814 5.77003 5.21466 5.55594 5.42366ZM10 13.9451C7.63467 13.9451 5.71478 12.0709 5.71478 9.76191C5.71478 7.45289 7.63467 5.57871 10 5.57871C12.3653 5.57871 14.2852 7.45289 14.2852 9.76191C14.2852 12.0709 12.3653 13.9451 10 13.9451Z" fill="#A889C8"/>
</svg>
