<svg width="20" height="20" viewBox="0 0 20 20" fill="none" xmlns="http://www.w3.org/2000/svg">
<path d="M9.39392 3.2273C9.57938 3.42704 9.83834 3.54242 10.1109 3.54675C10.3834 3.55107 10.6459 3.44396 10.8376 3.25021C11.6292 2.45017 12.7078 2 13.8333 2H17.9375C18.5243 2 19 2.4757 19 3.0625V15.2656C19 16.2321 18.2165 17.0156 17.25 17.0156H12.4653C11.7459 17.0156 11.0417 17.2225 10.4367 17.6117L10.1443 17.7997L9.95854 17.6724C9.33433 17.2446 8.59529 17.0156 7.83854 17.0156H2.75C1.7835 17.0156 1 16.2321 1 15.2656V9.50781V3.0625C1 2.4757 1.4757 2 2.0625 2H6.57963C7.64756 2 8.66727 2.44469 9.39392 3.2273Z" stroke="black" stroke-opacity="0.4" stroke-width="2" stroke-linejoin="round"/>
</svg>
