<svg width="23" height="21" viewBox="0 0 23 21" fill="none" xmlns="http://www.w3.org/2000/svg">
<path d="M21.8433 9.93048L21.7144 10.2759C21.6431 10.4665 21.4313 10.5543 21.241 10.4717L18.8301 9.42548C18.7623 9.39612 18.7122 9.34563 18.6714 9.2885C18.6002 9.21773 18.5547 9.1217 18.5541 9.01583L18.5453 6.73882L16.7212 5.93229C16.538 5.85161 16.4449 5.63377 16.5136 5.44667L16.5215 5.42559C16.3959 5.3603 16.3073 5.23115 16.3067 5.08293L16.2987 2.97354L14.3354 2.12154C14.1451 2.03894 14.0487 1.81728 14.1197 1.62688L14.2486 1.28146C14.32 1.09081 14.5318 1.00306 14.7222 1.08551L17.133 2.13183C17.2007 2.16121 17.2509 2.21169 17.2915 2.2688C17.3629 2.33962 17.4083 2.43561 17.409 2.54152L17.4185 5.0594L19.4167 5.94272C19.58 6.01487 19.6648 6.19508 19.634 6.36601C19.645 6.40091 19.6561 6.43621 19.6563 6.47442L19.6643 8.58369L21.6277 9.43579C21.8179 9.51841 21.9144 9.74005 21.8433 9.93048ZM18.4616 14.2743L12.1113 18.7872C11.4736 19.2403 10.5964 19.0806 10.1519 18.4302L2.70777 7.53764C2.26312 6.88754 2.41971 5.99297 3.05729 5.53973L9.40773 1.0268C10.0452 0.573677 10.9225 0.7336 11.367 1.3838L18.8114 12.2763C19.2558 12.9267 19.0991 13.8212 18.4616 14.2743ZM17.7442 12.5973L10.7023 2.29372C10.4801 1.96862 10.0414 1.88851 9.72261 2.11511L3.94944 6.21755C3.63064 6.44413 3.55251 6.89162 3.77474 7.21674L10.8167 17.5205C11.0389 17.8456 11.4775 17.9255 11.7963 17.6989L17.5692 13.5964C17.8879 13.3699 17.9664 12.9224 17.7442 12.5973ZM13.4755 13.8815C13.7946 13.6548 14.233 13.7347 14.4552 14.0598C14.6777 14.3851 14.5992 14.8324 14.2804 15.0589C13.9617 15.2855 13.5229 15.2054 13.3007 14.8803C13.0785 14.5552 13.1567 14.1078 13.4755 13.8815ZM4.16018 12.5589C4.34234 12.5909 4.48576 12.7471 4.48653 12.9353L4.49478 15.1212L6.43324 15.9781C6.53064 16.0213 6.59981 16.1039 6.63538 16.1993L6.64259 16.1996C6.84746 16.2092 7.01405 16.3825 7.01485 16.5873L7.02473 19.1811C7.02552 19.3854 6.8601 19.5437 6.65545 19.5342L6.2848 19.5169C6.07994 19.5073 5.91337 19.3339 5.91258 19.1293L5.9044 16.9258L3.73766 15.9678C3.65484 15.9313 3.5939 15.8647 3.55433 15.7874C3.45475 15.7165 3.38476 15.6057 3.38433 15.4773L3.37548 13.2082L1.13199 12.2346C1.06455 12.2052 1.01397 12.1548 0.973462 12.0976C0.90211 12.0269 0.856541 11.9308 0.855989 11.8253L0.846156 9.23149C0.845365 9.02687 1.01076 8.86876 1.21541 8.87841L1.58605 8.89572C1.79095 8.905 1.95751 9.07891 1.95831 9.28356L1.96656 11.393L3.92972 12.245C4.06082 12.3019 4.14227 12.4259 4.16018 12.5589Z" fill="#A889C8" stroke="#A889C8"/>
</svg>
