<svg width="22" height="22" viewBox="0 0 22 22" fill="none" xmlns="http://www.w3.org/2000/svg">
<rect width="22" height="22" fill="white"/>
<rect width="22" height="22" fill="white"/>
<path d="M2.66063 10.0994H19.3394C19.8368 10.0994 20.24 10.5026 20.24 11C20.24 11.4974 19.8368 11.9006 19.3394 11.9006H2.66063C2.16323 11.9006 1.76001 11.4974 1.76001 11C1.76001 10.5026 2.16323 10.0994 2.66063 10.0994Z" fill="#333333"/>
<path d="M10.0994 19.3394V2.66063C10.0994 2.16323 10.5026 1.76001 11 1.76001C11.4974 1.76001 11.9006 2.16323 11.9006 2.66063V19.3394C11.9006 19.8368 11.4974 20.24 11 20.24C10.5026 20.24 10.0994 19.8368 10.0994 19.3394Z" fill="#333333"/>
</svg>
