<?xml version="1.0" encoding="UTF-8"?>
<svg width="24px" height="24px" viewBox="0 0 24 24" version="1.1" xmlns="http://www.w3.org/2000/svg" xmlns:xlink="http://www.w3.org/1999/xlink">
    <g stroke="none" stroke-width="1" fill="none" fill-rule="evenodd">
        <g transform="translate(3.000000, 3.000000)" fill="#333333" fill-rule="nonzero">
            <path d="M16.1568,7.1568 L4.5868,7.1568 L7.8628,3.8808 C8.2538,3.4898 8.2538,2.8568 7.8628,2.4658 C7.4718,2.0748 6.8388,2.0748 6.4478,2.4658 L1.4478,7.4658 C1.0578,7.8568 1.0578,8.4898 1.4478,8.8808 L6.4478,13.8808 C6.6428,14.0758 6.9008,14.1728 7.1568,14.1728 C7.4138,14.1728 7.6718,14.0758 7.8668,13.8808 C8.2578,13.4898 8.2578,12.8568 7.8668,12.4658 L4.5878,9.1568 L16.1578,9.1568 C16.7098,9.1568 17.1578,8.7088 17.1578,8.1568 C17.1578,7.6048 16.7088,7.1568 16.1568,7.1568 Z"></path>
        </g>
    </g>
</svg>
