<svg width="20" height="22" viewBox="0 0 20 22" fill="none" xmlns="http://www.w3.org/2000/svg">
<path d="M1.51666 11.2666C1.51666 7.31777 4.71782 4.1166 8.66666 4.1166H9.99999H11.3333C15.2822 4.1166 18.4833 7.31777 18.4833 11.2666V12.5999V13.9333C18.4833 17.8821 15.2822 21.0833 11.3333 21.0833H9.99999H8.66666C4.71782 21.0833 1.51666 17.8821 1.51666 13.9333V12.5999V11.2666Z" stroke="#A889C8" stroke-width="1.7" stroke-linejoin="round"/>
<path fill-rule="evenodd" clip-rule="evenodd" d="M14.8312 13.2039C14.8299 13.7316 14.6957 14.159 14.5315 14.1586L10.9643 14.1782L10.9676 12.2388L14.5362 12.2476C14.7004 12.248 14.8325 12.6762 14.8312 13.2039Z" fill="#A889C8"/>
<path fill-rule="evenodd" clip-rule="evenodd" d="M10.0131 7.83939C10.5392 7.84069 10.9652 8.05306 10.9645 8.31372L10.9692 14.1764C10.9692 14.1764 10.9767 14.177 10.0218 14.1758C9.06681 14.1746 9.07188 13.7754 9.07252 13.5148L9.0594 8.30901C9.06004 8.04834 9.48705 7.83809 10.0131 7.83939Z" fill="#A889C8"/>
<path d="M15.3333 1.66675C17.5333 2.40008 18.6944 4.41675 19 5.33341" stroke="#A889C8" stroke-width="1.7" stroke-linecap="round"/>
<path d="M4.66666 1.66675C2.46666 2.40008 1.30555 4.41675 0.99999 5.33341" stroke="#A889C8" stroke-width="1.7" stroke-linecap="round"/>
</svg>
