<svg width="28" height="28" viewBox="0 0 28 28" fill="none" xmlns="http://www.w3.org/2000/svg">
<rect width="28" height="28" fill="white"/>
<path d="M15.3918 14.1559L20.125 18.8863C20.4668 19.2281 20.4668 19.7832 20.125 20.125C19.7832 20.4668 19.2281 20.4668 18.8863 20.125L14.1559 15.3918C14.0711 15.307 13.9316 15.307 13.8469 15.3918L9.11367 20.125C8.77187 20.4668 8.2168 20.4668 7.875 20.125C7.5332 19.7832 7.5332 19.2281 7.875 18.8863L12.6082 14.1531C12.693 14.0684 12.693 13.9289 12.6082 13.8441L7.875 9.11367C7.5332 8.77187 7.5332 8.2168 7.875 7.875C8.2168 7.5332 8.77187 7.5332 9.11367 7.875L13.8469 12.6082C13.9316 12.693 14.0711 12.693 14.1559 12.6082L18.8863 7.875C19.2281 7.5332 19.7832 7.5332 20.125 7.875C20.4668 8.2168 20.4668 8.77187 20.125 9.11367L15.3918 13.8441C15.351 13.8858 15.3282 13.9417 15.3282 14C15.3282 14.0583 15.351 14.1142 15.3918 14.1559Z" fill="#333333"/>
</svg>
