<svg width="20" height="20" viewBox="0 0 20 20" fill="none" xmlns="http://www.w3.org/2000/svg">
<path d="M5.99024 13.0026C5.57876 13.0022 5.17176 12.9172 4.79449 12.753C4.41722 12.5887 4.07773 12.3487 3.79709 12.0478C3.51644 11.7469 3.30062 11.3915 3.16302 11.0038C3.02543 10.616 2.96899 10.2041 2.99723 9.79361C3.10861 8.28902 4.31527 7.09859 5.82125 7.00757C6.94682 6.94493 8.01119 7.52325 8.57127 8.50156C8.7082 8.7432 9.01514 8.82802 9.25676 8.69109C9.4984 8.55413 9.58322 8.2472 9.44621 8.00558C8.69203 6.69003 7.25672 5.91634 5.7432 6.00958C3.7465 6.13906 2.15006 7.71925 2.00022 9.71456C1.96066 10.2627 2.03448 10.8131 2.21707 11.3315C2.39966 11.8499 2.6871 12.3251 3.06147 12.7274C3.43587 13.1297 3.88915 13.4506 4.39305 13.67C4.89695 13.8894 5.44065 14.0026 5.99024 14.0026C7.47125 14.0026 8.75826 13.1926 9.44826 11.9956C9.50282 11.9015 9.52483 11.792 9.5109 11.684C9.49698 11.5761 9.44788 11.4758 9.37121 11.3986L9.35625 11.3846C9.30181 11.3312 9.23581 11.2911 9.16338 11.2674C9.09094 11.2437 9.01402 11.237 8.93857 11.2479C8.86313 11.2587 8.7912 11.2868 8.72836 11.3299C8.66552 11.373 8.61346 11.4301 8.57623 11.4966C8.04705 12.4264 7.06012 13.0011 5.99024 13.0026ZM14.2372 6.00958C12.7233 5.91597 11.2876 6.68974 10.5332 8.00558C10.4179 8.2446 10.5077 8.53224 10.7386 8.66308C10.9695 8.794 11.2624 8.72335 11.4083 8.50156C11.9683 7.52325 13.0327 6.94493 14.1583 7.00757C15.6646 7.09806 16.8718 8.28863 16.9832 9.79361C17.0114 10.2041 16.955 10.616 16.8174 11.0038C16.6798 11.3915 16.464 11.7469 16.1833 12.0478C15.9027 12.3487 15.5632 12.5887 15.186 12.753C14.8087 12.9172 14.4017 13.0022 13.9903 13.0026C12.9208 13.0008 11.9342 12.426 11.4052 11.4966C11.368 11.4299 11.3159 11.3727 11.253 11.3295C11.1901 11.2862 11.118 11.2581 11.0425 11.2472C10.9669 11.2364 10.8898 11.2432 10.8173 11.267C10.7448 11.2908 10.6787 11.331 10.6243 11.3846L10.6092 11.3986C10.5325 11.4758 10.4835 11.5761 10.4695 11.6841C10.4556 11.792 10.4777 11.9015 10.5322 11.9956C11.2419 13.236 12.5612 14.0017 13.9903 14.0026C14.5399 14.0026 15.0835 13.8894 15.5874 13.67C16.0913 13.4506 16.5446 13.1297 16.919 12.7274C17.2934 12.3251 17.5808 11.8499 17.7634 11.3315C17.946 10.8132 18.0198 10.2627 17.9802 9.71456C17.8304 7.71925 16.2339 6.13906 14.2372 6.00958Z" fill="#6A0DAD"/>
<path d="M12.2402 10.7524H7.74027C7.326 10.7524 6.99023 10.4166 6.99023 10.0024C6.99023 9.5882 7.326 9.25244 7.74027 9.25244H12.2402C12.6544 9.25244 12.9902 9.5882 12.9902 10.0024C12.9902 10.4166 12.6544 10.7524 12.2402 10.7524Z" fill="#6A0DAD"/>
</svg>
