<svg width="20" height="21" viewBox="0 0 20 21" fill="none" xmlns="http://www.w3.org/2000/svg">
<path d="M2.25 10.75C2.25 6.88401 5.38401 3.75 9.25 3.75H10H10.75C14.616 3.75 17.75 6.88401 17.75 10.75V11.5V12.25C17.75 16.116 14.616 19.25 10.75 19.25H10H9.25C5.38401 19.25 2.25 16.116 2.25 12.25V11.5V10.75Z" stroke="black" stroke-opacity="0.4" stroke-width="2" stroke-linejoin="round"/>
<path fill-rule="evenodd" clip-rule="evenodd" d="M14.5293 12.0661C14.528 12.5608 14.4022 12.9616 14.2482 12.9612L10.904 12.9795L10.9071 11.1613L14.2527 11.1696C14.4067 11.17 14.5305 11.5713 14.5293 12.0661Z" fill="black" fill-opacity="0.4"/>
<path fill-rule="evenodd" clip-rule="evenodd" d="M10.0123 7.03693C10.5055 7.03815 10.9049 7.23724 10.9043 7.48161L10.9086 12.9779C10.9086 12.9779 10.9157 12.9785 10.0204 12.9773C9.12513 12.9762 9.12988 12.602 9.13049 12.3576L9.11819 7.47719C9.11879 7.23282 9.51911 7.03571 10.0123 7.03693Z" fill="black" fill-opacity="0.4"/>
<path d="M16 1C17.65 1.55 18.5208 3.0625 18.75 3.75" stroke="black" stroke-opacity="0.4" stroke-width="2" stroke-linecap="round"/>
<path d="M4 1C2.35 1.55 1.47917 3.0625 1.25 3.75" stroke="black" stroke-opacity="0.4" stroke-width="2" stroke-linecap="round"/>
</svg>
