<svg width="30" height="30" viewBox="0 0 30 30" fill="none" xmlns="http://www.w3.org/2000/svg">
<circle cx="15" cy="15" r="15" fill="white"/>
<path d="M14.9999 9.02539C15.1648 9.02539 15.3053 9.08354 15.4222 9.19969C15.5391 9.31584 15.5973 9.457 15.5973 9.62293V18.9347L18.7581 15.7694C18.8725 15.6565 19.0144 15.5983 19.1826 15.5983C19.3537 15.5983 19.4957 15.6548 19.6098 15.7677C19.7233 15.8822 19.7797 16.025 19.7797 16.1959C19.7797 16.3636 19.7226 16.5047 19.6074 16.6209L15.4251 20.802C15.3099 20.9182 15.1684 20.9746 15.0002 20.9746C14.8317 20.9746 14.6901 20.9182 14.5753 20.802L10.393 16.6209C10.278 16.5047 10.2203 16.3636 10.2203 16.1959C10.2203 16.0249 10.2771 15.8822 10.3907 15.7677C10.5043 15.6548 10.6467 15.5983 10.8178 15.5983C10.9857 15.5983 11.1274 15.6564 11.2426 15.7693L14.4027 18.9346V9.62293C14.4027 9.45692 14.4608 9.31584 14.5781 9.19969C14.6948 9.08346 14.8357 9.02539 15.0005 9.02539H14.9999Z" fill="#6A0DAD"/>
</svg>
