<?xml version="1.0" encoding="UTF-8"?>
<svg width="24px" height="24px" viewBox="0 0 24 24" version="1.1" xmlns="http://www.w3.org/2000/svg" xmlns:xlink="http://www.w3.org/1999/xlink">
    <g stroke="none" stroke-width="1" fill="none" fill-rule="evenodd">
        <g transform="translate(3.000000, 2.000000)" fill="#333333" fill-rule="nonzero">
            <path d="M13.5,0.25 C14.0523,0.25 14.5,0.697715 14.5,1.25 C14.5,1.74577 14.1326,2.16473 13.6581,2.23536 L13.5,2.25 L2.5,2.25 C1.5335,2.25 0.75,3.0335 0.75,4 L0.75,18 C0.75,18.9665 1.5335,19.75 2.5,19.75 L16.5,19.75 C17.4665,19.75 18.25,18.9665 18.25,18 L18.25,7 C18.25,6.44772 18.6977,6 19.25,6 C19.7458,6 20.1647,6.36738 20.2354,6.84193 L20.25,7 L20.25,18 C20.25,20.0711 18.5711,21.75 16.5,21.75 L2.5,21.75 C0.42893,21.75 -1.25,20.0711 -1.25,18 L-1.25,4 C-1.25,1.92893 0.42893,0.25 2.5,0.25 L13.5,0.25 Z M15.2197,7.28033 C15.5126,6.98744 15.9874,6.98744 16.2803,7.28033 L18.7197,9.71967 C19.0126,10.0126 19.0126,10.4874 18.7197,10.7803 L11.5303,17.9697 C11.3897,18.1103 11.1989,18.1893 11,18.1893 L8,18.1893 C7.58579,18.1893 7.25,17.8536 7.25,17.4393 L7.25,14.4393 C7.25,14.2404 7.32902,14.0497 7.46967,13.909 L15.2197,7.28033 Z M9.25,14.6812 L9.25,16.1893 L10.7582,16.1893 L16.75,9.5 L15.5,8.25 L9.25,14.6812 Z"></path>
        </g>
    </g>
</svg>
