<svg t="1754318682392" class="icon" viewBox="0 0 1024 1024" version="1.1" xmlns="http://www.w3.org/2000/svg" p-id="1469" width="200" height="200"><path d="M603.168 188.48a141.76 141.76 0 0 1 200.384-6.08l3.072 2.976a148.608 148.608 0 0 1 3.136 206.944L426.048 800H832a32 32 0 0 1 3.744 63.776L832 864H224a64 64 0 0 1-64-64v-115.296a64 64 0 0 1 17.408-43.872z m-22.592 117.312L224 684.672V800h114.176l357.12-379.488-114.72-114.72z m179.104-76.8a77.76 77.76 0 0 0-109.92 3.328l-25.312 26.88 114.72 114.688 24-25.44c29.984-31.84 30.56-80.96 2.24-113.504l-4.032-4.32z" fill="#a889c8" p-id="1470"></path></svg>