<svg width="27" height="40" viewBox="0 0 27 40" fill="none" xmlns="http://www.w3.org/2000/svg">
<path d="M16 3.2V36.8C16 37.6487 16.3371 38.4626 16.9373 39.0627C17.5374 39.6629 18.3513 40 19.2 40H24V0H19.2C18.3513 0 17.5374 0.337142 16.9373 0.937258C16.3371 1.53737 16 2.35131 16 3.2ZM17.656 20.12C17.6306 20.0897 17.6167 20.0515 17.6167 20.012C17.6167 19.9725 17.6306 19.9343 17.656 19.904L21.384 16.8C21.396 16.7864 21.4108 16.7755 21.4273 16.768C21.4439 16.7605 21.4618 16.7567 21.48 16.7567C21.4982 16.7567 21.5161 16.7605 21.5327 16.768C21.5492 16.7755 21.564 16.7864 21.576 16.8C21.5838 16.8288 21.5838 16.8592 21.576 16.888V22.984C21.5771 23.0029 21.5744 23.0219 21.5682 23.0397C21.5619 23.0576 21.5522 23.0741 21.5395 23.0882C21.5269 23.1023 21.5116 23.1138 21.4945 23.122C21.4775 23.1302 21.4589 23.135 21.44 23.136C21.414 23.1445 21.386 23.1445 21.36 23.136L17.656 20.12Z" fill="#A889C8"/>
</svg>
