<svg width="8" height="40" viewBox="0 0 8 40" fill="none" xmlns="http://www.w3.org/2000/svg">
<path d="M8 3.2V36.8C8 37.6487 7.66286 38.4626 7.06274 39.0627C6.46262 39.6629 5.64869 40 4.8 40H0V0H4.8C5.64869 0 6.46262 0.337142 7.06274 0.937258C7.66286 1.53737 8 2.35131 8 3.2ZM6.344 20.12C6.36939 20.0897 6.38331 20.0515 6.38331 20.012C6.38331 19.9725 6.36939 19.9343 6.344 19.904L2.616 16.8C2.60399 16.7864 2.58922 16.7755 2.57266 16.768C2.55611 16.7605 2.53816 16.7567 2.52 16.7567C2.50184 16.7567 2.48389 16.7605 2.46734 16.768C2.45078 16.7755 2.43601 16.7864 2.424 16.8C2.41618 16.8288 2.41618 16.8592 2.424 16.888V22.984C2.42292 23.0029 2.42558 23.0219 2.43184 23.0397C2.43809 23.0576 2.44782 23.0741 2.46045 23.0882C2.47309 23.1023 2.48838 23.1138 2.50546 23.122C2.52255 23.1302 2.54108 23.135 2.56 23.136C2.58598 23.1445 2.61402 23.1445 2.64 23.136L6.344 20.12Z" fill="rgba(0,0,0,0.1)"/>
</svg>
