<svg width="44" height="44" viewBox="0 0 44 44" fill="none" xmlns="http://www.w3.org/2000/svg">
<path d="M20.9211 9.01706C18.9655 9.18089 17.003 9.79182 15.4022 10.7372C14.4125 11.3175 13.6479 11.9079 12.8288 12.727C12.1189 13.437 11.7673 13.8602 11.2827 14.5735C10.5045 15.7237 10.0745 16.5872 9.65807 17.85C8.40889 21.6249 8.95498 25.7001 11.153 28.9937C13.0233 31.7924 15.9756 33.7993 19.2658 34.4989C20.1942 34.7003 20.9485 34.772 22.0304 34.772C23.2147 34.772 24.0304 34.6764 25.1329 34.4034C29.7712 33.26 33.4334 29.6387 34.6109 25.0345C34.8805 23.9731 35 23.0208 35 21.8945C35 20.461 34.7952 19.1982 34.3481 17.85C32.6928 12.8772 28.3207 9.4471 23.1089 9.0273C22.7096 8.99658 21.2522 8.98975 20.9211 9.01706ZM18.5149 16.0957C18.7061 16.1811 18.8085 16.2766 18.9006 16.4507C18.9689 16.5736 18.9757 16.6486 18.9859 17.2425L18.9996 17.9012H19.5969C20.2522 17.9012 20.3921 17.9251 20.5764 18.0753C20.9621 18.3961 20.9075 19.0344 20.4706 19.2904C20.3102 19.3859 20.2966 19.3859 19.6515 19.3962L18.9996 19.4098L18.9859 20.0617C18.9757 20.7034 18.9723 20.7204 18.8836 20.874C18.7402 21.1163 18.5149 21.246 18.2385 21.246C18.0303 21.246 17.8494 21.1744 17.7026 21.031C17.5081 20.8467 17.491 20.7614 17.491 20.0481V19.403H16.8869C16.4705 19.3996 16.2384 19.3859 16.1497 19.3552C15.6002 19.1572 15.45 18.4985 15.8664 18.1129C15.9483 18.0378 16.0746 17.9593 16.1463 17.9388C16.2214 17.9183 16.5524 17.9012 16.8869 17.9012H17.491V17.2528C17.491 16.5019 17.5047 16.4507 17.747 16.2357C17.9962 16.0172 18.2419 15.9695 18.5149 16.0957ZM26.4605 16.5565C26.8735 16.7271 27.0476 17.2425 26.8189 17.6214C26.7609 17.7204 24.8905 19.6078 21.9963 22.4986L17.2692 27.2121L17.0712 27.2701C16.7914 27.352 16.5456 27.294 16.3374 27.1028C16.1258 26.9117 16.061 26.5226 16.1941 26.2462C16.2965 26.0346 25.6858 16.6657 25.8871 16.5736C26.0714 16.4882 26.2865 16.4814 26.4605 16.5565ZM26.9623 24.5192C27.249 24.6489 27.4025 24.8844 27.4025 25.1881C27.4025 25.5294 27.1909 25.8229 26.8803 25.9185C26.7882 25.9458 26.1636 25.9561 24.8052 25.9561C22.6959 25.9561 22.7062 25.9561 22.457 25.7683C22.126 25.5124 22.1089 24.9526 22.4297 24.6523C22.6379 24.4509 22.5833 24.4577 24.795 24.4577C26.6926 24.4543 26.836 24.4611 26.9623 24.5192Z" fill="#A889C8" fill-opacity="0.97"/>
</svg>
