<svg width="22" height="22" viewBox="0 0 22 22" fill="none" xmlns="http://www.w3.org/2000/svg">
<path d="M12.9926 11.0356L8.77543 15.266C8.63134 15.4105 8.54859 15.605 8.54442 15.8091C8.54026 16.0131 8.61499 16.2109 8.75306 16.3612C8.81936 16.4334 8.89958 16.4914 8.98889 16.5317C9.07819 16.572 9.17474 16.5939 9.27272 16.596C9.3707 16.598 9.46807 16.5802 9.55899 16.5436C9.6499 16.507 9.73247 16.4524 9.80173 16.3831L14.4899 11.6892C14.8476 11.3311 14.8474 10.7508 14.4894 10.3931L9.78541 5.69156C9.71675 5.62294 9.63492 5.56893 9.54484 5.53277C9.45477 5.4966 9.3583 5.47903 9.26126 5.48112C9.16421 5.48321 9.06859 5.50492 8.98015 5.54492C8.89172 5.58493 8.81229 5.64242 8.74664 5.71393C8.60995 5.86284 8.53598 6.05875 8.54014 6.26085C8.54431 6.46295 8.62629 6.65565 8.76901 6.7988L12.9926 11.0355V11.0356Z" fill="#333333" fill-opacity="0.4"/>
</svg>
