<svg width="16" height="16" viewBox="0 0 16 16" fill="none" xmlns="http://www.w3.org/2000/svg">
<path d="M12.16 0.959961C12.6692 0.959961 13.1576 1.16225 13.5176 1.52232C13.8777 1.88239 14.08 2.37075 14.08 2.87996V13.12C14.08 13.6292 13.8777 14.1175 13.5176 14.4776C13.1576 14.8377 12.6692 15.04 12.16 15.04H3.83998C3.33077 15.04 2.84241 14.8377 2.48234 14.4776C2.12227 14.1175 1.91998 13.6292 1.91998 13.12V2.87996C1.91998 2.37075 2.12227 1.88239 2.48234 1.52232C2.84241 1.16225 3.33077 0.959961 3.83998 0.959961H12.16ZM12.16 1.91996H3.83998C3.59512 1.91995 3.3595 2.0135 3.18134 2.18149C3.00318 2.34948 2.89595 2.5792 2.88158 2.82364L2.87998 2.87996V13.12C2.87997 13.3648 2.97353 13.6004 3.14151 13.7786C3.3095 13.9568 3.53922 14.064 3.78366 14.0784L3.83998 14.08H12.16C12.4049 14.08 12.6405 13.9864 12.8186 13.8184C12.9968 13.6504 13.104 13.4207 13.1184 13.1763L13.12 13.12V2.87996C13.12 2.63509 13.0264 2.39948 12.8585 2.22132C12.6905 2.04316 12.4607 1.93593 12.2163 1.92156L12.16 1.91996ZM8.79998 8.31996C8.92729 8.31996 9.04938 8.37053 9.13939 8.46055C9.22941 8.55057 9.27998 8.67266 9.27998 8.79996C9.27998 8.92727 9.22941 9.04936 9.13939 9.13937C9.04938 9.22939 8.92729 9.27996 8.79998 9.27996H4.63998C4.51268 9.27996 4.39059 9.22939 4.30057 9.13937C4.21055 9.04936 4.15998 8.92727 4.15998 8.79996C4.15998 8.67266 4.21055 8.55057 4.30057 8.46055C4.39059 8.37053 4.51268 8.31996 4.63998 8.31996H8.79998ZM11.36 4.79996C11.4873 4.79996 11.6094 4.85053 11.6994 4.94055C11.7894 5.03057 11.84 5.15266 11.84 5.27996C11.84 5.40727 11.7894 5.52936 11.6994 5.61937C11.6094 5.70939 11.4873 5.75996 11.36 5.75996H4.63998C4.51268 5.75996 4.39059 5.70939 4.30057 5.61937C4.21055 5.52936 4.15998 5.40727 4.15998 5.27996C4.15998 5.15266 4.21055 5.03057 4.30057 4.94055C4.39059 4.85053 4.51268 4.79996 4.63998 4.79996H11.36Z" fill="black" fill-opacity="0.4"/>
</svg>
