<svg width="10" height="10" viewBox="0 0 10 10" fill="none" xmlns="http://www.w3.org/2000/svg">
<g clip-path="url(#clip0_522_5306)">
<path d="M9.16524 0.00170802H0.834757C0.723454 -0.00565523 0.611863 0.0108457 0.507454 0.0501059C0.403046 0.0893662 0.30823 0.15048 0.229355 0.229355C0.15048 0.30823 0.0893662 0.403046 0.0501059 0.507454C0.0108457 0.611863 -0.00565523 0.723454 0.00170802 0.834757V9.16524C-0.00565523 9.27655 0.0108457 9.38814 0.0501059 9.49255C0.0893662 9.59695 0.15048 9.69177 0.229355 9.77065C0.30823 9.84952 0.403046 9.91063 0.507454 9.94989C0.611863 9.98915 0.723454 10.0057 0.834757 9.99829H9.16524C9.27655 10.0057 9.38814 9.98915 9.49255 9.94989C9.59695 9.91063 9.69177 9.84952 9.77065 9.77065C9.84952 9.69177 9.91063 9.59695 9.94989 9.49255C9.98915 9.38814 10.0057 9.27655 9.99829 9.16524V0.834757C10.0057 0.723454 9.98915 0.611863 9.94989 0.507454C9.91063 0.403046 9.84952 0.30823 9.77065 0.229355C9.69177 0.15048 9.59695 0.0893662 9.49255 0.0501059C9.38814 0.0108457 9.27655 -0.00565523 9.16524 0.00170802ZM9.16524 0.834757V3.92537C8.89163 3.86517 8.61235 3.83445 8.33219 3.83373C7.45654 3.83714 6.59993 4.0896 5.86238 4.56163C5.12484 5.03366 4.53681 5.70577 4.16695 6.49949C4.08365 6.6661 3.83373 6.83271 3.66712 6.6661C3.18059 6.40226 2.63771 6.2594 2.08433 6.24957C1.65365 6.24918 1.22778 6.34003 0.834757 6.51615V0.834757H9.16524Z" fill="#A889C8"/>
<path d="M3.12506 2.5C3.04156 2.49448 2.95783 2.50686 2.8795 2.53631C2.80117 2.56577 2.73003 2.61162 2.67085 2.67079C2.61168 2.72997 2.56583 2.80111 2.53637 2.87944C2.50692 2.95777 2.49454 3.04149 2.50006 3.125C2.49454 3.20851 2.50692 3.29223 2.53637 3.37056C2.56583 3.44889 2.61168 3.52003 2.67085 3.57921C2.73003 3.63838 2.80117 3.68423 2.8795 3.71369C2.95783 3.74314 3.04156 3.75552 3.12506 3.75C3.20857 3.75552 3.29229 3.74314 3.37062 3.71369C3.44895 3.68423 3.52009 3.63838 3.57927 3.57921C3.63844 3.52003 3.68429 3.44889 3.71375 3.37056C3.74321 3.29223 3.75559 3.20851 3.75006 3.125C3.75559 3.04149 3.74321 2.95777 3.71375 2.87944C3.68429 2.80111 3.63844 2.72997 3.57927 2.67079C3.52009 2.61162 3.44895 2.56577 3.37062 2.53631C3.29229 2.50686 3.20857 2.49448 3.12506 2.5Z" fill="#A889C8"/>
</g>
<defs>
<clipPath id="clip0_522_5306">
<rect width="10" height="10" fill="white"/>
</clipPath>
</defs>
</svg>
