<svg width="15" height="15" viewBox="0 0 15 15" fill="none" xmlns="http://www.w3.org/2000/svg">
<g clip-path="url(#clip0_1218_4931)">
<rect x="1" y="1" width="13" height="12" fill="white"/>
<path d="M13.7479 0.00256203H1.25213C1.08518 -0.00848285 0.917794 0.0162685 0.761181 0.0751589C0.604568 0.134049 0.462344 0.22572 0.344032 0.344032C0.22572 0.462344 0.134049 0.604568 0.0751589 0.761181C0.0162685 0.917794 -0.00848285 1.08518 0.00256203 1.25213V13.7479C-0.00848285 13.9148 0.0162685 14.0822 0.0751589 14.2388C0.134049 14.3954 0.22572 14.5377 0.344032 14.656C0.462344 14.7743 0.604568 14.866 0.761181 14.9248C0.917794 14.9837 1.08518 15.0085 1.25213 14.9974H13.7479C13.9148 15.0085 14.0822 14.9837 14.2388 14.9248C14.3954 14.866 14.5377 14.7743 14.656 14.656C14.7743 14.5377 14.866 14.3954 14.9248 14.2388C14.9837 14.0822 15.0085 13.9148 14.9974 13.7479V1.25213C15.0085 1.08518 14.9837 0.917794 14.9248 0.761181C14.866 0.604568 14.7743 0.462344 14.656 0.344032C14.5377 0.22572 14.3954 0.134049 14.2388 0.0751589C14.0822 0.0162685 13.9148 -0.00848285 13.7479 0.00256203ZM13.7479 1.25213V5.88805C13.3374 5.79775 12.9185 5.75167 12.4983 5.7506C11.1848 5.75571 9.89989 6.1344 8.79358 6.84244C7.68726 7.55048 6.80521 8.55866 6.25043 9.74923C6.12547 9.99915 5.7506 10.2491 5.50068 9.99915C4.77088 9.6034 3.95656 9.3891 3.12649 9.37436C2.48048 9.37377 1.84167 9.51005 1.25213 9.77422V1.25213H13.7479Z" fill="#A889C8"/>
<path d="M4.68747 3.74997C4.56221 3.74168 4.43663 3.76025 4.31913 3.80444C4.20163 3.84862 4.09492 3.91739 4.00616 4.00616C3.91739 4.09492 3.84862 4.20163 3.80444 4.31913C3.76025 4.43663 3.74168 4.56221 3.74997 4.68747C3.74168 4.81273 3.76025 4.93831 3.80444 5.05581C3.84862 5.17331 3.91739 5.28001 4.00616 5.36878C4.09492 5.45754 4.20163 5.52632 4.31913 5.5705C4.43663 5.61469 4.56221 5.63326 4.68747 5.62497C4.81273 5.63326 4.93831 5.61469 5.05581 5.5705C5.17331 5.52632 5.28001 5.45754 5.36878 5.36878C5.45754 5.28001 5.52632 5.17331 5.5705 5.05581C5.61469 4.93831 5.63326 4.81273 5.62497 4.68747C5.63326 4.56221 5.61469 4.43663 5.5705 4.31913C5.52632 4.20163 5.45754 4.09492 5.36878 4.00616C5.28001 3.91739 5.17331 3.84862 5.05581 3.80444C4.93831 3.76025 4.81273 3.74168 4.68747 3.74997Z" fill="#A889C8"/>
</g>
<defs>
<clipPath id="clip0_1218_4931">
<rect width="15" height="15" fill="white"/>
</clipPath>
</defs>
</svg>