<svg width="20" height="18" viewBox="0 0 20 18" fill="none" xmlns="http://www.w3.org/2000/svg">
<path fill-rule="evenodd" clip-rule="evenodd" d="M9.12674 3.27893C8.95547 3.18006 8.79824 3.05542 8.6611 2.90772C8.12367 2.3289 7.36948 2 6.57963 2H2.0625C2.05018 2 2.04348 2.0021 2.03879 2.00409C2.03276 2.00664 2.02541 2.0112 2.01831 2.01831C2.0112 2.02541 2.00664 2.03276 2.00409 2.03879C2.0021 2.04348 2 2.05018 2 2.0625V8.50781V14.2656C2 14.6798 2.33579 15.0156 2.75 15.0156H7.83854C8.27654 15.0156 8.70985 15.0762 9.12674 15.1936V3.27893ZM9.12674 17.336C8.73134 17.1264 8.28922 17.0156 7.83854 17.0156H2.75C1.23122 17.0156 0 15.7844 0 14.2656V8.50781V2.0625C0 0.923413 0.923412 0 2.0625 0H6.57963C7.78817 0 8.94771 0.451839 9.83489 1.25811C9.93581 1.34983 10.0332 1.44613 10.1267 1.54688C10.2309 1.44164 10.339 1.34129 10.4508 1.24599C11.3906 0.44486 12.5888 0 13.8333 0H17.9375C19.0766 0 20 0.923413 20 2.0625V14.2656C20 15.7844 18.7688 17.0156 17.25 17.0156H12.4653C11.9958 17.0156 11.5352 17.1358 11.1267 17.3634C11.0762 17.3915 11.0265 17.4213 10.9776 17.4527L10.1267 18L9.39321 17.4973C9.3072 17.4383 9.21822 17.3845 9.12674 17.336ZM11.1267 15.2081C11.5593 15.0811 12.0099 15.0156 12.4653 15.0156H17.25C17.6642 15.0156 18 14.6798 18 14.2656V2.0625C18 2.05018 17.9979 2.04348 17.9959 2.03879C17.9934 2.03276 17.9888 2.02541 17.9817 2.01831C17.9746 2.0112 17.9672 2.00664 17.9612 2.00409C17.9565 2.0021 17.9498 2 17.9375 2H13.8333C12.9749 2 12.1522 2.34335 11.5485 2.95354C11.4219 3.08149 11.2798 3.19055 11.1267 3.27893V15.2081Z" fill="black" fill-opacity="0.4"/>
</svg>
