<svg width="17" height="20" viewBox="0 0 17 20" fill="none" xmlns="http://www.w3.org/2000/svg">
<path fill-rule="evenodd" clip-rule="evenodd" d="M8.06935 0C4.00256 0 0.706125 3.29652 0.706064 7.36328C0.706064 9.96305 2.05452 12.2462 4.08888 13.5566C1.64462 14.4599 0.28229 16.3617 0.00196266 19.2617L9.53674e-06 19.2939V19.3262C9.53674e-06 19.4146 0.0169601 19.5023 0.0507908 19.584C0.0846519 19.6657 0.134708 19.7402 0.197275 19.8027C0.259651 19.8651 0.333618 19.9144 0.415049 19.9482C0.496796 19.9821 0.585355 20 0.673838 20L15.4981 19.999L15.5303 19.9971C15.6183 19.9886 15.7042 19.9634 15.7822 19.9219C15.8604 19.8803 15.9291 19.8231 15.9854 19.7549C16.0417 19.6866 16.0845 19.6081 16.1104 19.5234C16.1362 19.4388 16.1452 19.3498 16.1367 19.2617C15.8569 16.362 14.4948 14.46 12.0508 13.5566C14.0847 12.2461 15.4326 9.96271 15.4326 7.36328C15.4326 3.29654 12.1361 3.42525e-05 8.06935 0ZM8.36427 14.7197C11.7299 14.7801 13.53 15.8868 14.1582 18.2178L14.1602 18.2266H1.97755L2.02638 18.0566C2.69739 15.8218 4.5096 14.7674 7.83595 14.7207C7.91346 14.7231 7.99124 14.7275 8.06935 14.7275C8.16814 14.7275 8.26641 14.7236 8.36427 14.7197ZM8.06935 1.77344C9.55196 1.77345 10.9741 2.36185 12.0225 3.41016C13.0708 4.45849 13.66 5.88072 13.6602 7.36328C13.6602 8.84601 13.0709 10.2689 12.0225 11.3174C11.0385 12.3013 9.72521 12.8798 8.34181 12.9473C8.25177 12.9458 8.16093 12.9434 8.06935 12.9434C7.97807 12.9434 7.88759 12.9458 7.79786 12.9473C6.41408 12.8801 5.10048 12.3015 4.11622 11.3174C3.06777 10.2689 2.47853 8.84601 2.47853 7.36328C2.47865 5.88072 3.06788 4.45849 4.11622 3.41016C5.16464 2.36188 6.58674 1.77344 8.06935 1.77344Z" fill="black" fill-opacity="0.4"/>
</svg>
