<svg width="18" height="18" viewBox="0 0 18 18" fill="none" xmlns="http://www.w3.org/2000/svg">
<path d="M15.435 8.208L13.1607 3.7593C13.015 3.47419 12.7933 3.2349 12.5201 3.06782C12.2469 2.90075 11.9329 2.81239 11.6127 2.8125H6.43503C5.78703 2.8125 5.19303 3.1725 4.89423 3.7467L2.57223 8.1954C2.44251 8.44376 2.37476 8.7198 2.37476 9C2.37476 9.2802 2.44251 9.55624 2.57223 9.8046L4.89423 14.2533C5.04114 14.535 5.26245 14.771 5.5341 14.9357C5.80575 15.1004 6.11735 15.1875 6.43503 15.1875H11.6127C12.2661 15.1875 12.8637 14.8221 13.1607 14.2407L15.435 9.7911C15.5602 9.54619 15.6255 9.27506 15.6255 9C15.6255 8.72494 15.5602 8.45381 15.435 8.2089V8.208ZM14.1624 14.7528C13.9223 15.2224 13.5572 15.6166 13.1073 15.8918C12.6574 16.167 12.1402 16.3126 11.6127 16.3125H6.43503C5.91173 16.3124 5.39847 16.1689 4.95101 15.8976C4.50355 15.6263 4.13902 15.2375 3.89703 14.7735L1.57503 10.3248C1.36155 9.91583 1.25006 9.46133 1.25006 9C1.25006 8.53867 1.36155 8.08417 1.57503 7.6752L3.89703 3.2256C4.13914 2.76179 4.50372 2.37319 4.95117 2.10202C5.39862 1.83085 5.91183 1.68749 6.43503 1.6875H11.6127C12.6882 1.6875 13.6728 2.2905 14.1624 3.2472L16.4367 7.6968C16.8552 8.5158 16.8552 9.4851 16.4367 10.3032L14.1624 14.7528Z" fill="white"/>
<path d="M8.99999 12.2625C8.57155 12.2625 8.14731 12.1782 7.75148 12.0142C7.35566 11.8503 6.996 11.6099 6.69305 11.307C6.3901 11.004 6.14979 10.6444 5.98583 10.2486C5.82187 9.85273 5.73749 9.42849 5.73749 9.00005C5.73749 8.57161 5.82187 8.14737 5.98583 7.75154C6.14979 7.35572 6.3901 6.99606 6.69305 6.69311C6.996 6.39016 7.35566 6.14985 7.75148 5.98589C8.14731 5.82194 8.57155 5.73755 8.99999 5.73755C9.86526 5.73755 10.6951 6.08128 11.3069 6.69311C11.9188 7.30495 12.2625 8.13478 12.2625 9.00005C12.2625 9.86532 11.9188 10.6951 11.3069 11.307C10.6951 11.9188 9.86526 12.2625 8.99999 12.2625ZM8.99999 11.1375C9.28069 11.1375 9.55864 11.0823 9.81797 10.9748C10.0773 10.8674 10.3129 10.71 10.5114 10.5115C10.7099 10.313 10.8674 10.0774 10.9748 9.81804C11.0822 9.5587 11.1375 9.28075 11.1375 9.00005C11.1375 8.71935 11.0822 8.4414 10.9748 8.18206C10.8674 7.92273 10.7099 7.68709 10.5114 7.48861C10.3129 7.29012 10.0773 7.13268 9.81797 7.02526C9.55864 6.91784 9.28069 6.86255 8.99999 6.86255C8.43309 6.86255 7.88941 7.08775 7.48855 7.48861C7.08769 7.88947 6.86249 8.43315 6.86249 9.00005C6.86249 9.56695 7.08769 10.1106 7.48855 10.5115C7.88941 10.9123 8.43309 11.1375 8.99999 11.1375Z" fill="white"/>
</svg>