<svg width="17" height="20" viewBox="0 0 17 20" fill="none" xmlns="http://www.w3.org/2000/svg">
<path fill-rule="evenodd" clip-rule="evenodd" d="M8.07047 0C12.1373 0 15.4338 3.29646 15.4338 7.36328C15.4337 9.96303 14.0853 12.2462 12.0509 13.5566C14.4951 14.46 15.8575 16.3618 16.1379 19.2617L16.1398 19.2939V19.3262C16.1398 19.4146 16.1229 19.5023 16.089 19.584C16.0552 19.6657 16.0051 19.7402 15.9425 19.8027C15.88 19.8652 15.8054 19.9144 15.7238 19.9482C15.6421 19.982 15.5543 20 15.466 20L0.641758 19.999L0.609531 19.9971C0.521513 19.9886 0.435667 19.9624 0.357578 19.9209C0.279626 19.8794 0.210648 19.823 0.154453 19.7549C0.0981774 19.6866 0.0553323 19.608 0.0294532 19.5234C0.00360886 19.4389 -0.00537461 19.3497 0.003086 19.2617C0.282898 16.362 1.64506 14.4601 4.08902 13.5566C2.05507 12.2461 0.707233 9.96271 0.707188 7.36328C0.707188 3.29648 4.00367 2.34306e-05 8.07047 0ZM7.77359 14.7197C4.40916 14.7805 2.60969 15.8873 1.9816 18.2178L1.97965 18.2266H14.1623L14.1134 18.0566C13.443 15.8237 11.6334 14.7691 8.31266 14.7207C8.23223 14.7233 8.15152 14.7275 8.07047 14.7275C7.97102 14.7275 7.87209 14.7236 7.77359 14.7197ZM8.07047 1.77246C6.5878 1.77247 5.16577 2.36178 4.11734 3.41016C3.06895 4.45855 2.47971 5.88063 2.47965 7.36328C2.47965 8.84595 3.06898 10.268 4.11734 11.3164C5.09906 12.2981 6.40831 12.8766 7.78824 12.9463C7.88147 12.9448 7.97558 12.9434 8.07047 12.9434C8.16505 12.9434 8.25879 12.9448 8.35172 12.9463C9.73204 12.8768 11.0416 12.2984 12.0236 11.3164C13.072 10.268 13.6613 8.84597 13.6613 7.36328C13.6612 5.88063 13.072 4.45855 12.0236 3.41016C10.9752 2.36179 9.55313 1.77246 8.07047 1.77246ZM6.22965 8.62793C6.41705 8.64185 6.59124 8.72982 6.71402 8.87207V8.87305C7.05233 9.26526 7.54208 9.49512 8.07047 9.49512C8.32794 9.49552 8.58253 9.44033 8.81656 9.33301C9.05066 9.22563 9.25921 9.06851 9.42691 8.87305C9.5508 8.7353 9.72348 8.65159 9.90836 8.63965C10.0935 8.62781 10.2766 8.68848 10.4171 8.80957C10.5577 8.93066 10.6446 9.10225 10.6603 9.28711C10.676 9.47198 10.6193 9.65575 10.5011 9.79883C10.2003 10.1489 9.82691 10.4296 9.40738 10.6221C8.98793 10.8144 8.53193 10.9145 8.07047 10.9141C7.60903 10.9145 7.153 10.8144 6.73355 10.6221C6.31405 10.4296 5.94059 10.1489 5.6398 9.79883C5.51698 9.65635 5.456 9.4708 5.46988 9.2832C5.48378 9.09559 5.57154 8.92068 5.71402 8.79785C5.85648 8.67517 6.04216 8.61404 6.22965 8.62793Z" fill="#A889C8"/>
</svg>
