<svg width="30" height="30" viewBox="0 0 30 30" fill="none" xmlns="http://www.w3.org/2000/svg">
<path d="M25.0554 14.4075C24.9529 13.8435 24.7398 13.3054 24.4283 12.8242C24.2222 12.5064 23.9731 12.2401 23.3804 11.6074L19.3348 7.30693C18.6448 6.57397 18.3499 6.26761 17.992 6.01852C17.5156 5.68628 16.9771 5.45354 16.4087 5.33423C15.9821 5.24547 15.5555 5.23975 14.5505 5.23975C13.1447 5.23975 12.1311 5.23975 11.3066 5.29701C10.439 5.35713 9.84635 5.47739 9.32239 5.70071C7.93573 6.28568 6.83235 7.38907 6.24738 8.77573C6.02692 9.29968 5.90667 9.89235 5.84654 10.7599C5.78928 11.5873 5.78928 12.6009 5.78928 14.0038V15.298C5.78928 16.95 5.78928 18.1439 5.86944 19.1117C5.95248 20.1281 6.11854 20.8181 6.42203 21.4136C6.98034 22.5131 7.85646 23.3892 8.95591 23.9475C9.55431 24.251 10.2415 24.4171 11.2579 24.5001C12.2256 24.5803 13.4195 24.5803 15.0716 24.5803H16.5576C17.8689 24.5803 18.8194 24.5803 19.5896 24.5287C20.4028 24.4743 20.9611 24.3713 21.4507 24.1766C22.9424 23.5896 24.1363 22.3957 24.7232 20.904C24.9179 20.4115 25.021 19.8532 25.0754 19.043C25.1269 18.2699 25.1269 17.3222 25.1269 16.0109C25.1269 15.1462 25.1269 14.7797 25.0554 14.4075ZM18.2898 8.28899L22.3354 12.5866C22.6074 12.8757 22.7935 13.0733 22.928 13.225H22.5988C21.1414 13.225 19.77 12.6581 18.7393 11.6274C18.231 11.1217 17.8282 10.5201 17.5539 9.85766C17.2797 9.19518 17.1396 8.48489 17.1416 7.7679V7.17237C17.1416 7.17237 17.1645 7.18668 17.176 7.19241C17.4079 7.35274 17.637 7.59039 18.2926 8.28899H18.2898ZM23.6467 18.9513C23.6037 19.5984 23.5264 20.0393 23.3919 20.3829C23.1714 20.9405 22.8388 21.447 22.4148 21.871C21.9908 22.295 21.4843 22.6276 20.9267 22.8481C20.586 22.9826 20.1451 23.0628 19.4951 23.1029C18.7708 23.1516 17.8402 23.1516 16.5547 23.1516H15.0687C13.451 23.1516 12.28 23.1516 11.3724 23.0771C10.5535 23.0113 10.0239 22.891 9.60298 22.6763C8.78016 22.2591 8.11209 21.59 7.69613 20.7666C7.48139 20.3457 7.36114 19.816 7.29529 18.9971C7.22085 18.0867 7.22085 16.9185 7.22085 15.3008V14.0067C7.22085 12.6324 7.22085 11.6389 7.27525 10.863C7.32392 10.1701 7.41268 9.70052 7.56729 9.3369C8.01107 8.28899 8.83566 7.46441 9.88357 7.02062C10.2472 6.86601 10.7167 6.77725 11.4068 6.72858C12.1827 6.67418 13.1762 6.67418 14.5505 6.67418C15.1174 6.67418 15.4638 6.67418 15.7101 6.6885V7.7679C15.7101 9.6089 16.4258 11.3382 17.7286 12.641C18.3668 13.2825 19.1257 13.7912 19.9617 14.1376C20.7976 14.4841 21.6939 14.6615 22.5988 14.6595H23.6467V14.6652C23.6896 14.9057 23.6925 15.1892 23.6925 16.0109C23.6925 17.2936 23.6925 18.2212 23.6438 18.9513H23.6467Z" fill="black" fill-opacity="0.4"/>
<path d="M14.55 5.14014C15.5516 5.14014 15.9902 5.14458 16.4289 5.23584V5.23682C17.0104 5.35886 17.5617 5.59622 18.049 5.93604C18.4173 6.19236 18.7198 6.50835 19.4074 7.23877L23.4533 11.5386C24.0435 12.1687 24.2998 12.443 24.5119 12.77C24.8303 13.2619 25.0487 13.8117 25.1535 14.3882C25.2273 14.772 25.2268 15.1505 25.2268 16.0112C25.2268 17.3209 25.2268 18.2723 25.175 19.0493C25.1203 19.8645 25.0167 20.4349 24.8166 20.9409C24.2195 22.4583 23.005 23.6729 21.4875 24.27V24.269C20.9842 24.4692 20.4139 24.5737 19.5959 24.6284C18.8217 24.6802 17.8675 24.6802 16.5578 24.6802H15.0715C13.4212 24.6802 12.222 24.6807 11.2492 24.6001C10.226 24.5165 9.52454 24.3481 8.91037 24.0366C7.79232 23.4688 6.90111 22.5775 6.33322 21.4595C6.02156 20.8479 5.85334 20.143 5.76974 19.1196C5.68919 18.1469 5.68967 16.9484 5.68967 15.2983V14.0034C5.68967 12.6023 5.68879 11.5849 5.74631 10.7534C5.80684 9.88 5.92915 9.27473 6.15549 8.73682C6.75058 7.32626 7.87287 6.204 9.28342 5.60889L9.48849 5.52783C9.97676 5.35005 10.5358 5.24974 11.3 5.19678C12.1287 5.13925 13.1461 5.14014 14.55 5.14014ZM14.55 6.77393C13.1745 6.77393 12.1848 6.77355 11.4133 6.82764C10.7275 6.87604 10.2713 6.96477 9.92307 7.11279H9.92209C8.89842 7.54644 8.09303 8.35181 7.65939 9.37549V9.37646C7.51139 9.7247 7.42361 10.1809 7.37521 10.8696C7.32112 11.6411 7.32053 12.6307 7.32053 14.0063V15.3013C7.32053 16.9203 7.32074 18.0834 7.39474 18.9888C7.4602 19.8027 7.57943 20.3175 7.78537 20.7212L7.94943 21.0161C8.35756 21.6856 8.94542 22.2308 9.64865 22.5874C10.0522 22.7932 10.5665 22.9116 11.3801 22.9771C12.2826 23.0511 13.4492 23.0513 15.0686 23.0513H16.5549C17.8418 23.0513 18.7683 23.0518 19.4885 23.0034L19.9348 22.9653C20.3428 22.9202 20.6452 22.852 20.8899 22.7554C21.4347 22.5399 21.9296 22.2146 22.344 21.8003C22.7583 21.386 23.0836 20.8911 23.299 20.3462L23.3449 20.2183C23.44 19.9268 23.4992 19.5588 23.5373 19.0513L23.5442 18.9448C23.5926 18.2189 23.593 17.2951 23.593 16.0112C23.593 15.2738 23.5875 14.9776 23.5578 14.7593H22.5988C21.6808 14.7613 20.7712 14.5815 19.9231 14.23C19.075 13.8785 18.3049 13.3622 17.6574 12.7114C16.3362 11.39 15.6096 9.63536 15.6096 7.76807V6.78564C15.3736 6.77614 15.0483 6.77393 14.55 6.77393ZM17.2414 7.76807L17.2473 8.03174C17.2759 8.64554 17.4112 9.25085 17.6467 9.81982C17.9158 10.4698 18.3111 11.0599 18.8098 11.5562V11.5571C19.8217 12.569 21.168 13.1255 22.5988 13.1255H22.6994C22.585 13.0014 22.4445 12.8478 22.2629 12.6548L18.217 8.35791L18.0578 8.18896H18.0608C17.6303 7.73156 17.4138 7.51228 17.2414 7.37061V7.76807Z" stroke="black" stroke-opacity="0.4" stroke-width="0.2"/>
<path d="M10.0067 15.4868H17.9175V16.7838H10.0067V15.4868ZM10.0067 18.2583H14.456V19.5553H10.0067V18.2583Z" fill="black" fill-opacity="0.4"/>
<path d="M14.5565 18.1587V19.6558H9.90707V18.1587H14.5565ZM18.0174 15.3872V16.8843H9.90707V15.3872H18.0174Z" stroke="black" stroke-opacity="0.4" stroke-width="0.2"/>
</svg>
