<svg width="30" height="30" viewBox="0 0 30 30" fill="none" xmlns="http://www.w3.org/2000/svg">
<path d="M14.55 5.14014C15.5515 5.14014 15.9902 5.14458 16.4289 5.23584V5.23682C17.0103 5.35886 17.5617 5.59622 18.049 5.93604C18.4173 6.19236 18.7198 6.50835 19.4074 7.23877L23.4533 11.5386C24.0435 12.1687 24.2998 12.443 24.5119 12.77C24.8303 13.2619 25.0486 13.8117 25.1535 14.3882C25.2273 14.772 25.2267 15.1505 25.2267 16.0112C25.2267 17.3209 25.2268 18.2723 25.175 19.0493C25.1203 19.8645 25.0167 20.4349 24.8166 20.9409C24.2195 22.4583 23.0049 23.6729 21.4875 24.27V24.269C20.9842 24.4692 20.4139 24.5737 19.5959 24.6284C18.8217 24.6802 17.8674 24.6802 16.5578 24.6802H15.0715C13.4211 24.6802 12.222 24.6807 11.2492 24.6001C10.226 24.5165 9.52451 24.3481 8.91034 24.0366C7.79229 23.4688 6.90108 22.5775 6.33319 21.4595C6.02153 20.8479 5.85331 20.143 5.76971 19.1196C5.68916 18.1469 5.68964 16.9484 5.68964 15.2983V14.0034C5.68964 12.6023 5.68876 11.5849 5.74628 10.7534C5.80681 9.88 5.92912 9.27473 6.15546 8.73682C6.75055 7.32626 7.87284 6.204 9.28339 5.60889L9.48846 5.52783C9.97673 5.35005 10.5358 5.24974 11.3 5.19678C12.1287 5.13925 13.1461 5.14014 14.55 5.14014ZM14.55 6.77393C13.1744 6.77393 12.1848 6.77355 11.4133 6.82764C10.7274 6.87604 10.2713 6.96477 9.92303 7.11279H9.92206C8.89839 7.54644 8.09299 8.35181 7.65936 9.37549V9.37646C7.51136 9.7247 7.42358 10.1809 7.37518 10.8696C7.32109 11.6411 7.3205 12.6307 7.3205 14.0063V15.3013C7.3205 16.9203 7.32071 18.0834 7.39471 18.9888C7.46017 19.8027 7.57939 20.3175 7.78534 20.7212L7.9494 21.0161C8.35753 21.6856 8.94539 22.2308 9.64862 22.5874C10.0522 22.7932 10.5665 22.9116 11.3801 22.9771C12.2826 23.0511 13.4492 23.0513 15.0685 23.0513H16.5549C17.8417 23.0513 18.7683 23.0518 19.4885 23.0034L19.9348 22.9653C20.3428 22.9202 20.6452 22.852 20.8898 22.7554C21.4347 22.5399 21.9296 22.2146 22.3439 21.8003C22.7583 21.386 23.0835 20.8911 23.299 20.3462L23.3449 20.2183C23.44 19.9268 23.4992 19.5588 23.5373 19.0513L23.5441 18.9448C23.5925 18.2189 23.593 17.2951 23.593 16.0112C23.593 15.2738 23.5875 14.9776 23.5578 14.7593H22.5988C21.6808 14.7613 20.7711 14.5815 19.923 14.23C19.075 13.8785 18.3048 13.3622 17.6574 12.7114C16.3362 11.39 15.6096 9.63536 15.6096 7.76807V6.78564C15.3736 6.77614 15.0483 6.77393 14.55 6.77393ZM17.2414 7.76807L17.2473 8.03174C17.2759 8.64554 17.4111 9.25085 17.6467 9.81982C17.9158 10.4698 18.3111 11.0599 18.8098 11.5562V11.5571C19.8217 12.569 21.168 13.1255 22.5988 13.1255H22.6994C22.585 13.0014 22.4445 12.8478 22.2629 12.6548L18.217 8.35791L18.0578 8.18896H18.0607C17.6303 7.73156 17.4137 7.51228 17.2414 7.37061V7.76807Z" fill="#A889C8" stroke="#A889C8" stroke-width="0.2"/>
<path d="M14.5565 18.1587V19.6558H9.90704V18.1587H14.5565ZM18.0174 15.3872V16.8843H9.90704V15.3872H18.0174Z" fill="#A889C8" stroke="#A889C8" stroke-width="0.2"/>
</svg>
