<svg width="24" height="24" viewBox="0 0 24 24" fill="none" xmlns="http://www.w3.org/2000/svg">
<path d="M4.25 12C4.25 12.2298 4.29527 12.4574 4.38321 12.6697C4.47116 12.882 4.60006 13.0749 4.76256 13.2374C4.92507 13.3999 5.11798 13.5288 5.3303 13.6168C5.54262 13.7047 5.77019 13.75 6 13.75C6.22981 13.75 6.45738 13.7047 6.6697 13.6168C6.88202 13.5288 7.07493 13.3999 7.23744 13.2374C7.39994 13.0749 7.52884 12.882 7.61679 12.6697C7.70474 12.4574 7.75 12.2298 7.75 12C7.75 11.7702 7.70474 11.5426 7.61679 11.3303C7.52884 11.118 7.39994 10.9251 7.23744 10.7626C7.07493 10.6001 6.88202 10.4712 6.6697 10.3832C6.45738 10.2953 6.22981 10.25 6 10.25C5.77019 10.25 5.54262 10.2953 5.3303 10.3832C5.11798 10.4712 4.92507 10.6001 4.76256 10.7626C4.60006 10.9251 4.47116 11.118 4.38321 11.3303C4.29527 11.5426 4.25 11.7702 4.25 12Z" fill="#A889C8" fill-opacity="0.8"/>
<path d="M10.25 12C10.25 12.2298 10.2953 12.4574 10.3832 12.6697C10.4712 12.882 10.6001 13.0749 10.7626 13.2374C10.9251 13.3999 11.118 13.5288 11.3303 13.6168C11.5426 13.7047 11.7702 13.75 12 13.75C12.2298 13.75 12.4574 13.7047 12.6697 13.6168C12.882 13.5288 13.0749 13.3999 13.2374 13.2374C13.3999 13.0749 13.5288 12.882 13.6168 12.6697C13.7047 12.4574 13.75 12.2298 13.75 12C13.75 11.5359 13.5656 11.0908 13.2374 10.7626C12.9092 10.4344 12.4641 10.25 12 10.25C11.5359 10.25 11.0908 10.4344 10.7626 10.7626C10.4344 11.0908 10.25 11.5359 10.25 12Z" fill="#A889C8" fill-opacity="0.8"/>
<path d="M16.25 12C16.25 12.4641 16.4344 12.9092 16.7626 13.2374C17.0908 13.5656 17.5359 13.75 18 13.75C18.4641 13.75 18.9092 13.5656 19.2374 13.2374C19.5656 12.9092 19.75 12.4641 19.75 12C19.75 11.5359 19.5656 11.0908 19.2374 10.7626C18.9092 10.4344 18.4641 10.25 18 10.25C17.5359 10.25 17.0908 10.4344 16.7626 10.7626C16.4344 11.0908 16.25 11.5359 16.25 12Z" fill="#A889C8" fill-opacity="0.8"/>
</svg>
