<svg width="22" height="23" viewBox="0 0 22 23" fill="none" xmlns="http://www.w3.org/2000/svg">
<path d="M7.9513 0.0231495C6.2078 0.03965 3.0728 0.14415 2.5723 0.204649C1.6813 0.309151 1.0873 0.62265 0.669302 1.21115C0.289802 1.74465 0.201802 2.08565 0.141302 3.23515C-0.0181981 6.34265 -0.0511982 15.7256 0.0863018 19.1521C0.152302 20.7306 0.245802 21.0991 0.724302 21.6931C1.2193 22.2981 1.8408 22.5621 2.9848 22.6446C5.1683 22.8041 17.0758 22.7601 18.2638 22.5896C19.0228 22.4796 19.8203 21.9406 20.1338 21.3246C20.4583 20.6811 20.5023 20.1696 20.5738 16.0226L20.6123 13.8832L20.2988 13.9216C18.3243 14.1526 12.8408 14.1361 11.7573 13.8941C11.2073 13.7731 10.6683 13.3937 10.4043 12.9372C10.0963 12.4146 10.0248 11.9636 10.0193 10.5721C10.0193 9.51065 10.0358 9.24665 10.1183 8.92215C10.3108 8.20165 10.5968 7.79465 11.0918 7.54165C11.4548 7.36015 11.7188 7.31065 12.8683 7.20615C14.6228 7.04665 19.7378 7.09615 20.4693 7.27765C20.5848 7.31065 20.5848 7.30515 20.5628 6.29865C20.4803 2.58065 20.4253 1.97015 20.0953 1.40915C19.7708 0.864651 19.1273 0.402649 18.4893 0.259649C18.0383 0.16065 16.4213 0.0946503 13.0388 0.03965C11.2568 0.0121498 9.6563 -0.00435066 9.4913 0.00115013C9.3263 0.00664902 8.6333 0.0176506 7.9513 0.0231495Z" fill="#A889C8" fill-opacity="0.97"/>
<path d="M13.7537 8.02024C12.5657 8.08624 11.8507 8.16324 11.6362 8.25674C11.3942 8.35574 11.1742 8.58674 11.0642 8.84524C10.9487 9.12024 10.8662 9.85174 10.8662 10.5722C10.8662 12.4257 11.1687 12.9592 12.2852 13.0747C14.5402 13.3112 20.0842 13.2012 20.7387 12.9152C21.0357 12.7832 21.2942 12.4752 21.3987 12.1287C21.6187 11.3972 21.6187 9.74724 21.3987 9.02124C21.2337 8.46574 20.8817 8.21274 20.1722 8.12474C18.9182 7.97074 15.6292 7.92124 13.7537 8.02024ZM19.4187 10.0277C19.5727 10.1267 19.6662 10.4017 19.6277 10.6217C19.5837 10.8472 19.3142 11.0397 19.0447 11.0397C18.5772 11.0342 18.3297 10.6217 18.5442 10.2092C18.6982 9.90124 19.0997 9.81874 19.4187 10.0277Z" fill="#A889C8" fill-opacity="0.97"/>
</svg>
