<svg width="27" height="27" viewBox="0 0 27 27" fill="none" xmlns="http://www.w3.org/2000/svg">
<path d="M9.34009 0.0536251C7.61859 0.273624 5.86409 0.999624 4.39009 2.08862C3.75209 2.56162 2.64109 3.65613 2.18459 4.26113C1.09559 5.70763 0.490592 7.06613 0.116592 8.88663C0.0450923 9.23862 0.0285923 9.90413 0.0065923 12.6706C-0.0209077 16.7516 0.0175923 17.2191 0.518092 18.6821C1.73359 22.2461 4.77509 24.9961 8.43259 25.8431C9.35659 26.0576 9.78559 26.0741 13.3826 26.0466C16.7101 26.0246 16.8696 26.0191 17.3976 25.9036C20.2686 25.2656 22.7161 23.5936 24.3331 21.1571C24.8171 20.4311 25.4056 19.1936 25.6476 18.3961C26.0381 17.1036 26.0326 17.1531 26.0326 13.0831C26.0326 9.17813 26.0326 9.16713 25.7466 8.05062C24.6796 3.88713 20.9176 0.581625 16.6551 0.0536251C16.1051 -0.0178757 9.87909 -0.0178757 9.34009 0.0536251ZM19.9991 5.85612C20.1366 5.95513 20.2851 6.20813 20.2851 6.35662C20.2851 6.41713 20.1256 6.93962 19.9331 7.52813C19.5921 8.55663 19.4711 8.79313 19.2786 8.79313C19.2456 8.79313 18.7781 8.35312 18.2391 7.81963C17.2436 6.82413 17.1501 6.69763 17.3481 6.53263C17.4691 6.42813 19.4986 5.77913 19.7076 5.77363C19.8011 5.76813 19.9331 5.80663 19.9991 5.85612ZM17.5736 8.58413C19.0916 10.1021 19.1411 10.1681 19.0476 10.5366C19.0256 10.6411 17.5571 12.1371 14.5486 15.1291C10.4621 19.1991 10.0661 19.5841 9.79659 19.6831C9.43359 19.8151 9.01009 19.8261 8.61959 19.6996C8.36109 19.6171 8.21809 19.5071 7.50859 18.8086C6.51309 17.8296 6.39759 17.6371 6.39759 16.9331C6.39759 16.0806 6.14459 16.3776 10.9846 11.5266C13.3331 9.17262 15.3021 7.22013 15.3626 7.18713C15.5441 7.08263 15.7916 7.04963 15.9676 7.09912C16.0776 7.12663 16.6056 7.61613 17.5736 8.58413Z" fill="#A889C8" fill-opacity="0.97"/>
</svg>
