<svg width="15" height="15" viewBox="0 0 15 15" fill="none" xmlns="http://www.w3.org/2000/svg">
<path d="M1.25 1.66666L9.91104 0.0654297L14.9321 4.80839L13.75 14.1667L1.66667 13.3333L1.25 1.66666Z" fill="#E6E6FA"/>
<path d="M1.36286 0H9.93428L15 4.75738V13.8069C15 14.4672 14.3914 15 13.6371 15H1.36286C0.608572 15 0 14.4672 0 13.8069V1.1931C0 0.532766 0.608572 0 1.36286 0ZM9.93428 0.172586V3.42171C9.93428 3.81941 10.2257 4.77989 11.5714 4.77989H14.82L9.93428 0.172586ZM4.71429 9.21461C5.35714 9.21461 5.73428 8.83942 5.73428 8.37419C5.73428 7.93147 5.35714 7.52626 4.71429 7.52626H3.72C3.55714 7.52626 3.42857 7.63882 3.42857 7.78139V10.1751C3.42857 10.2726 3.50571 10.3402 3.61714 10.3402C3.75429 10.3402 3.83143 10.2726 3.83143 10.1751V9.21461H4.71429ZM4.68857 7.83392C5.06571 7.83392 5.33143 8.04402 5.33143 8.37419C5.33143 8.70435 5.06571 8.91446 4.68857 8.91446H3.83143V7.83392H4.68857ZM7.47429 10.3402C8.49429 10.3402 9.13714 9.73237 9.13714 8.93697C9.13714 8.14157 8.46857 7.52626 7.47429 7.52626H6.66857C6.50571 7.52626 6.37714 7.63882 6.37714 7.78139V10.0775C6.37714 10.2201 6.50571 10.3327 6.66857 10.3327H7.47429V10.3402ZM7.47429 7.83392C8.28 7.83392 8.73429 8.32916 8.70857 8.91446C8.70857 9.52226 8.25428 10.0175 7.47429 10.0175H6.78V7.83392H7.47429ZM11.8371 7.83392C11.9486 7.83392 12.0257 7.76638 12 7.69135C12 7.5938 11.9486 7.52626 11.8371 7.52626H10.1743C10.0114 7.52626 9.88286 7.63882 9.88286 7.78139V10.1751C9.88286 10.2726 9.96 10.3402 10.0714 10.3402C10.2086 10.3402 10.2857 10.2726 10.2857 10.1751V9.04952H11.8114C11.8886 9.04952 11.9743 9.0045 11.9743 8.90695C11.9743 8.80941 11.9229 8.74187 11.8114 8.74187H10.2857V7.82641L11.8371 7.83392Z" fill="#A889C8"/>
</svg>
