<svg width="10" height="10" viewBox="0 0 10 10" fill="none" xmlns="http://www.w3.org/2000/svg">
<path d="M0.908572 0H6.62286L10 3.17159V9.2046C10 9.64482 9.59429 10 9.09143 10H0.908572C0.405714 10 0 9.64482 0 9.2046V0.795398C0 0.355178 0.405714 0 0.908572 0ZM6.62286 0.115058V2.28114C6.62286 2.54627 6.81714 3.18659 7.71429 3.18659H9.88L6.62286 0.115058ZM3.14286 6.14307C3.57143 6.14307 3.82286 5.89295 3.82286 5.58279C3.82286 5.28764 3.57143 5.01751 3.14286 5.01751H2.48C2.37143 5.01751 2.28571 5.09255 2.28571 5.18759V6.78339C2.28571 6.84842 2.33714 6.89345 2.41143 6.89345C2.50286 6.89345 2.55429 6.84842 2.55429 6.78339V6.14307H3.14286ZM3.12571 5.22261C3.37714 5.22261 3.55429 5.36268 3.55429 5.58279C3.55429 5.8029 3.37714 5.94297 3.12571 5.94297H2.55429V5.22261H3.12571ZM4.98286 6.89345C5.66286 6.89345 6.09143 6.48824 6.09143 5.95798C6.09143 5.42771 5.64571 5.01751 4.98286 5.01751H4.44571C4.33714 5.01751 4.25143 5.09255 4.25143 5.18759V6.71836C4.25143 6.81341 4.33714 6.88844 4.44571 6.88844H4.98286V6.89345ZM4.98286 5.22261C5.52 5.22261 5.82286 5.55278 5.80571 5.94297C5.80571 6.34817 5.50286 6.67834 4.98286 6.67834H4.52V5.22261H4.98286ZM7.89143 5.22261C7.96571 5.22261 8.01714 5.17759 8 5.12756C8 5.06253 7.96571 5.01751 7.89143 5.01751H6.78286C6.67429 5.01751 6.58857 5.09255 6.58857 5.18759V6.78339C6.58857 6.84842 6.64 6.89345 6.71429 6.89345C6.80571 6.89345 6.85714 6.84842 6.85714 6.78339V6.03302H7.87429C7.92571 6.03302 7.98286 6.003 7.98286 5.93797C7.98286 5.87294 7.94857 5.82791 7.87429 5.82791H6.85714V5.21761L7.89143 5.22261Z" fill="#A889C8"/>
</svg>
