<svg width="16" height="16" viewBox="0 0 16 16" fill="none" xmlns="http://www.w3.org/2000/svg">
<g clip-path="url(#clip0_2424_5196)">
<path d="M7.985 15.97C6.9362 15.9714 5.89747 15.7655 4.92853 15.3641C3.95958 14.9627 3.07954 14.3737 2.33901 13.631C1.59627 12.8905 1.00726 12.0105 0.605851 11.0415C0.204439 10.0726 -0.00145634 9.03381 7.75361e-06 7.985C-0.00145634 6.9362 0.204439 5.89745 0.605851 4.9285C1.00726 3.95954 1.59627 3.07951 2.33901 2.33901C3.07951 1.59627 3.95954 1.00726 4.9285 0.605851C5.89745 0.204439 6.9362 -0.00145634 7.985 7.75361e-06C9.03381 -0.00145634 10.0726 0.204439 11.0415 0.605851C12.0105 1.00726 12.8905 1.59627 13.631 2.33901C14.3735 3.07963 14.9623 3.9597 15.3635 4.92864C15.7648 5.89758 15.9705 6.93627 15.969 7.985C15.9704 9.0338 15.7645 10.0725 15.3631 11.0415C14.9617 12.0104 14.3727 12.8905 13.63 13.631C12.8895 14.3734 12.0096 14.9622 11.0409 15.3634C10.0721 15.7647 9.03357 15.9705 7.985 15.969V15.97ZM7.985 0.960007C7.06239 0.958732 6.14863 1.1398 5.29622 1.49281C4.44382 1.84582 3.66958 2.36381 3.01801 3.01701C2.36439 3.66873 1.84608 4.44326 1.49289 5.29603C1.1397 6.1488 0.958599 7.06299 0.960007 7.986C0.958732 8.90861 1.1398 9.82238 1.49281 10.6748C1.84582 11.5272 2.36381 12.3014 3.01701 12.953C3.66866 13.6064 4.44306 14.1244 5.29565 14.4775C6.14824 14.8305 7.06222 15.0115 7.985 15.01C8.90762 15.0113 9.8214 14.8303 10.6738 14.4773C11.5262 14.1243 12.3005 13.6062 12.952 12.953C13.6052 12.3014 14.1232 11.5272 14.4762 10.6748C14.8292 9.82238 15.0103 8.90861 15.009 7.986C15.0103 7.06338 14.8293 6.1496 14.4763 5.29719C14.1233 4.44478 13.6052 3.67054 12.952 3.01901C12.3006 2.3654 11.5265 1.84702 10.674 1.49366C9.82163 1.1403 8.90776 0.958939 7.985 0.960007ZM9.414 6.464C10.0775 6.46321 10.7142 6.72567 11.1844 7.19381C11.6546 7.66195 11.9199 8.2975 11.922 8.961C11.9196 9.62433 11.6542 10.2596 11.1841 10.7275C10.7139 11.1955 10.0773 11.4578 9.414 11.457H5.905C5.7777 11.457 5.65561 11.4064 5.56559 11.3164C5.47558 11.2264 5.425 11.1043 5.425 10.977C5.425 10.8497 5.47558 10.7276 5.56559 10.6376C5.65561 10.5476 5.7777 10.497 5.905 10.497H9.414C10.268 10.497 10.962 9.807 10.962 8.961C10.962 8.114 10.268 7.424 9.414 7.424H5.607L6.589 8.407C6.67904 8.49704 6.72963 8.61917 6.72963 8.7465C6.72963 8.87384 6.67904 8.99596 6.589 9.086C6.49896 9.17604 6.37684 9.22663 6.2495 9.22663C6.12217 9.22663 6.00005 9.17604 5.91 9.086L4.111 7.286C4.06618 7.24111 4.03073 7.18776 4.0067 7.12905C3.98266 7.07034 3.97053 7.00744 3.97101 6.944C3.97001 6.821 4.017 6.697 4.111 6.602L5.911 4.803C5.95565 4.75849 6.00863 4.7232 6.06692 4.69916C6.12521 4.67511 6.18766 4.66279 6.25071 4.66288C6.31376 4.66297 6.37618 4.67548 6.43439 4.6997C6.49261 4.72391 6.54549 4.75936 6.59 4.804C6.63452 4.84865 6.66981 4.90163 6.69385 4.95992C6.71789 5.01821 6.73022 5.08066 6.73013 5.14371C6.73004 5.20676 6.71753 5.26918 6.69331 5.32739C6.6691 5.38561 6.63365 5.43849 6.589 5.483L5.607 6.464H9.414Z" fill="#6A0DAD"/>
</g>
<defs>
<clipPath id="clip0_2424_5196">
<rect width="16" height="16" fill="white"/>
</clipPath>
</defs>
</svg>
