<svg width="22" height="22" viewBox="0 0 22 22" fill="none" xmlns="http://www.w3.org/2000/svg">
<path d="M3.4336 6.02947L3.43362 6.02976C3.52659 7.23833 4.54866 8.16653 5.75555 8.16653H5.93332V8.16681L5.94071 8.16626L8.33711 7.98875C8.93156 7.98664 9.32644 7.48801 9.23329 6.90269C9.22868 6.30996 8.72977 5.91705 8.14493 6.01138L6.67124 6.08507C7.95042 5.05626 9.52648 4.4332 11.1778 4.4332C15.0337 4.4332 18.1889 7.58843 18.1889 11.4443C18.1889 15.3002 15.0337 18.4554 11.1778 18.4554C7.32189 18.4554 4.16666 15.3002 4.16666 11.4443C4.16666 11.1549 4.06976 10.906 3.89292 10.7292C3.71609 10.5523 3.46716 10.4554 3.17777 10.4554C2.88838 10.4554 2.63945 10.5523 2.46261 10.7292C2.28578 10.906 2.18888 11.1549 2.18888 11.4443C2.18888 16.3884 6.23365 20.4332 11.1778 20.4332C16.1216 20.4332 20.1662 16.3889 20.1667 11.4452C20.2561 6.49972 16.2101 2.45542 11.2667 2.45542C9.08344 2.45542 6.98699 3.30307 5.38704 4.66781L5.2333 3.43793C5.22976 2.84492 4.73173 2.45133 4.14726 2.54434C3.55412 2.54895 3.16107 3.04855 3.25615 3.63392L3.4336 6.02947Z" fill="#A889C8" stroke="#A889C8" stroke-width="0.2"/>
</svg>
