<svg width="22" height="22" viewBox="0 0 22 22" fill="none" xmlns="http://www.w3.org/2000/svg">
<mask id="path-1-outside-1_522_4149" maskUnits="userSpaceOnUse" x="0" y="0" width="22" height="22" fill="black">
<rect fill="white" width="22" height="22"/>
<path d="M11 1.99961C11.3955 1.99952 11.7787 2.13721 12.0835 2.38899C12.3884 2.64077 12.5959 2.99088 12.6704 3.37907L12.7804 3.94885L13.3305 4.13378C13.6282 4.23629 13.9189 4.35817 14.2007 4.49864L14.7008 4.75854L15.2009 4.42866C15.5281 4.2081 15.9219 4.10814 16.3147 4.14595C16.7076 4.18375 17.0751 4.35694 17.3541 4.63585C17.6332 4.91475 17.8065 5.28199 17.8443 5.6746C17.8822 6.06722 17.7822 6.46075 17.5614 6.78774L17.2314 7.28755L17.4914 7.78735C17.632 8.06897 17.7539 8.35948 17.8565 8.65702L18.0416 9.2068L18.6117 9.31676C18.9977 9.39329 19.3452 9.60127 19.5949 9.90523C19.8447 10.2092 19.9812 10.5903 19.9812 10.9836C19.9812 11.3769 19.8447 11.758 19.5949 12.062C19.3452 12.3659 18.9977 12.5739 18.6117 12.6505L18.0416 12.7604L17.8565 13.3102C17.7578 13.6126 17.6392 13.9081 17.5014 14.1949L17.2414 14.6947L17.5715 15.1945C17.7922 15.5215 17.8922 15.915 17.8543 16.3076C17.8165 16.7002 17.6432 17.0675 17.3641 17.3464C17.0851 17.6253 16.7176 17.7985 16.3248 17.8363C15.9319 17.8741 15.5381 17.7741 15.2109 17.5536L14.7108 17.2237L14.2107 17.4836C13.9289 17.624 13.6382 17.7459 13.3405 17.8484L12.7904 18.0334L12.6804 18.6031C12.6063 18.9917 12.399 19.3423 12.0941 19.5945C11.7892 19.8467 11.4058 19.9846 11.01 19.9846C10.6142 19.9846 10.2308 19.8467 9.92591 19.5945C9.621 19.3423 9.41366 18.9917 9.33963 18.6031L9.22961 18.0334L8.67949 17.8484C8.37863 17.7495 8.0846 17.631 7.7993 17.4936L7.29919 17.2337L6.79908 17.5635C6.47188 17.7841 6.07811 17.8841 5.68525 17.8463C5.2924 17.8085 4.92494 17.6353 4.64587 17.3564C4.36679 17.0775 4.19349 16.7102 4.15566 16.3176C4.11784 15.925 4.21785 15.5315 4.43855 15.2045L4.76863 14.7047L4.49857 14.1949C4.35803 13.9132 4.23608 13.6227 4.13349 13.3252L3.94845 12.7754L3.37832 12.6655C2.99231 12.5889 2.64481 12.3809 2.39508 12.077C2.14534 11.773 2.00884 11.3919 2.00884 10.9986C2.00884 10.6053 2.14534 10.2242 2.39508 9.92023C2.64481 9.61627 2.99231 9.40829 3.37832 9.33175L3.94845 9.2218L4.13349 8.67201C4.23586 8.37277 4.35782 8.08059 4.49857 7.79735L4.75862 7.29755L4.42855 6.79774C4.20785 6.47075 4.10784 6.07721 4.14566 5.6846C4.18349 5.29198 4.35679 4.92475 4.63586 4.64584C4.91494 4.36694 5.2824 4.19374 5.67525 4.15594C6.0681 4.11814 6.46188 4.21809 6.78907 4.43866L7.28918 4.76853L7.78929 4.50863C8.07108 4.36817 8.36177 4.24629 8.65948 4.14377L9.20961 3.95885L9.31963 3.38907C9.39232 2.99735 9.60041 2.6436 9.90755 2.38963C10.2147 2.13567 10.6014 1.99762 11 1.99961ZM11 1C10.3718 1.00055 9.76345 1.21994 9.27966 1.62042C8.79587 2.0209 8.46691 2.57741 8.34942 3.19414C8.00721 3.3102 7.67307 3.44878 7.3492 3.60898C6.82946 3.25677 6.20315 3.09658 5.57801 3.15596C4.95287 3.21535 4.36797 3.49059 3.92394 3.93436C3.47991 4.37812 3.20449 4.96266 3.14507 5.58742C3.08565 6.21218 3.24594 6.8381 3.59837 7.35752C3.43807 7.6812 3.2994 8.01513 3.18328 8.35713C2.56841 8.47706 2.01439 8.8069 1.6161 9.29015C1.2178 9.77341 1 10.38 1 11.0061C1 11.6322 1.2178 12.2388 1.6161 12.722C2.01439 13.2053 2.56841 13.5351 3.18328 13.6551C3.2994 13.9971 3.43807 14.331 3.59837 14.6547C3.24594 15.1741 3.08565 15.8 3.14507 16.4248C3.20449 17.0495 3.47991 17.6341 3.92394 18.0778C4.36797 18.5216 4.95287 18.7969 5.57801 18.8562C6.20315 18.9156 6.82946 18.7554 7.3492 18.4032C7.67308 18.5634 8.00722 18.702 8.34942 18.8181C8.46942 19.4325 8.79946 19.9862 9.28301 20.3843C9.76655 20.7823 10.3735 21 11 21C11.6265 21 12.2334 20.7823 12.717 20.3843C13.2005 19.9862 13.5306 19.4325 13.6506 18.8181C13.9928 18.702 14.3269 18.5634 14.6508 18.4032C15.1705 18.7554 15.7969 18.9156 16.422 18.8562C17.0471 18.7969 17.632 18.5216 18.0761 18.0778C18.5201 17.6341 18.7955 17.0495 18.8549 16.4248C18.9144 15.8 18.7541 15.1741 18.4016 14.6547C18.5619 14.331 18.7006 13.9971 18.8167 13.6551C19.4316 13.5351 19.9856 13.2053 20.3839 12.722C20.7822 12.2388 21 11.6322 21 11.0061C21 10.38 20.7822 9.77341 20.3839 9.29015C19.9856 8.8069 19.4316 8.47706 18.8167 8.35713C18.7006 8.01513 18.5619 7.6812 18.4016 7.35752C18.7541 6.8381 18.9144 6.21218 18.8549 5.58742C18.7955 4.96266 18.5201 4.37812 18.0761 3.93436C17.632 3.49059 17.0471 3.21535 16.422 3.15596C15.7969 3.09658 15.1705 3.25677 14.6508 3.60898C14.3269 3.44878 13.9928 3.3102 13.6506 3.19414C13.5331 2.57741 13.2041 2.0209 12.7203 1.62042C12.2366 1.21994 11.6282 1.00055 11 1Z"/>
</mask>
<path d="M11 1.99961C11.3955 1.99952 11.7787 2.13721 12.0835 2.38899C12.3884 2.64077 12.5959 2.99088 12.6704 3.37907L12.7804 3.94885L13.3305 4.13378C13.6282 4.23629 13.9189 4.35817 14.2007 4.49864L14.7008 4.75854L15.2009 4.42866C15.5281 4.2081 15.9219 4.10814 16.3147 4.14595C16.7076 4.18375 17.0751 4.35694 17.3541 4.63585C17.6332 4.91475 17.8065 5.28199 17.8443 5.6746C17.8822 6.06722 17.7822 6.46075 17.5614 6.78774L17.2314 7.28755L17.4914 7.78735C17.632 8.06897 17.7539 8.35948 17.8565 8.65702L18.0416 9.2068L18.6117 9.31676C18.9977 9.39329 19.3452 9.60127 19.5949 9.90523C19.8447 10.2092 19.9812 10.5903 19.9812 10.9836C19.9812 11.3769 19.8447 11.758 19.5949 12.062C19.3452 12.3659 18.9977 12.5739 18.6117 12.6505L18.0416 12.7604L17.8565 13.3102C17.7578 13.6126 17.6392 13.9081 17.5014 14.1949L17.2414 14.6947L17.5715 15.1945C17.7922 15.5215 17.8922 15.915 17.8543 16.3076C17.8165 16.7002 17.6432 17.0675 17.3641 17.3464C17.0851 17.6253 16.7176 17.7985 16.3248 17.8363C15.9319 17.8741 15.5381 17.7741 15.2109 17.5536L14.7108 17.2237L14.2107 17.4836C13.9289 17.624 13.6382 17.7459 13.3405 17.8484L12.7904 18.0334L12.6804 18.6031C12.6063 18.9917 12.399 19.3423 12.0941 19.5945C11.7892 19.8467 11.4058 19.9846 11.01 19.9846C10.6142 19.9846 10.2308 19.8467 9.92591 19.5945C9.621 19.3423 9.41366 18.9917 9.33963 18.6031L9.22961 18.0334L8.67949 17.8484C8.37863 17.7495 8.0846 17.631 7.7993 17.4936L7.29919 17.2337L6.79908 17.5635C6.47188 17.7841 6.07811 17.8841 5.68525 17.8463C5.2924 17.8085 4.92494 17.6353 4.64587 17.3564C4.36679 17.0775 4.19349 16.7102 4.15566 16.3176C4.11784 15.925 4.21785 15.5315 4.43855 15.2045L4.76863 14.7047L4.49857 14.1949C4.35803 13.9132 4.23608 13.6227 4.13349 13.3252L3.94845 12.7754L3.37832 12.6655C2.99231 12.5889 2.64481 12.3809 2.39508 12.077C2.14534 11.773 2.00884 11.3919 2.00884 10.9986C2.00884 10.6053 2.14534 10.2242 2.39508 9.92023C2.64481 9.61627 2.99231 9.40829 3.37832 9.33175L3.94845 9.2218L4.13349 8.67201C4.23586 8.37277 4.35782 8.08059 4.49857 7.79735L4.75862 7.29755L4.42855 6.79774C4.20785 6.47075 4.10784 6.07721 4.14566 5.6846C4.18349 5.29198 4.35679 4.92475 4.63586 4.64584C4.91494 4.36694 5.2824 4.19374 5.67525 4.15594C6.0681 4.11814 6.46188 4.21809 6.78907 4.43866L7.28918 4.76853L7.78929 4.50863C8.07108 4.36817 8.36177 4.24629 8.65948 4.14377L9.20961 3.95885L9.31963 3.38907C9.39232 2.99735 9.60041 2.6436 9.90755 2.38963C10.2147 2.13567 10.6014 1.99762 11 1.99961ZM11 1C10.3718 1.00055 9.76345 1.21994 9.27966 1.62042C8.79587 2.0209 8.46691 2.57741 8.34942 3.19414C8.00721 3.3102 7.67307 3.44878 7.3492 3.60898C6.82946 3.25677 6.20315 3.09658 5.57801 3.15596C4.95287 3.21535 4.36797 3.49059 3.92394 3.93436C3.47991 4.37812 3.20449 4.96266 3.14507 5.58742C3.08565 6.21218 3.24594 6.8381 3.59837 7.35752C3.43807 7.6812 3.2994 8.01513 3.18328 8.35713C2.56841 8.47706 2.01439 8.8069 1.6161 9.29015C1.2178 9.77341 1 10.38 1 11.0061C1 11.6322 1.2178 12.2388 1.6161 12.722C2.01439 13.2053 2.56841 13.5351 3.18328 13.6551C3.2994 13.9971 3.43807 14.331 3.59837 14.6547C3.24594 15.1741 3.08565 15.8 3.14507 16.4248C3.20449 17.0495 3.47991 17.6341 3.92394 18.0778C4.36797 18.5216 4.95287 18.7969 5.57801 18.8562C6.20315 18.9156 6.82946 18.7554 7.3492 18.4032C7.67308 18.5634 8.00722 18.702 8.34942 18.8181C8.46942 19.4325 8.79946 19.9862 9.28301 20.3843C9.76655 20.7823 10.3735 21 11 21C11.6265 21 12.2334 20.7823 12.717 20.3843C13.2005 19.9862 13.5306 19.4325 13.6506 18.8181C13.9928 18.702 14.3269 18.5634 14.6508 18.4032C15.1705 18.7554 15.7969 18.9156 16.422 18.8562C17.0471 18.7969 17.632 18.5216 18.0761 18.0778C18.5201 17.6341 18.7955 17.0495 18.8549 16.4248C18.9144 15.8 18.7541 15.1741 18.4016 14.6547C18.5619 14.331 18.7006 13.9971 18.8167 13.6551C19.4316 13.5351 19.9856 13.2053 20.3839 12.722C20.7822 12.2388 21 11.6322 21 11.0061C21 10.38 20.7822 9.77341 20.3839 9.29015C19.9856 8.8069 19.4316 8.47706 18.8167 8.35713C18.7006 8.01513 18.5619 7.6812 18.4016 7.35752C18.7541 6.8381 18.9144 6.21218 18.8549 5.58742C18.7955 4.96266 18.5201 4.37812 18.0761 3.93436C17.632 3.49059 17.0471 3.21535 16.422 3.15596C15.7969 3.09658 15.1705 3.25677 14.6508 3.60898C14.3269 3.44878 13.9928 3.3102 13.6506 3.19414C13.5331 2.57741 13.2041 2.0209 12.7203 1.62042C12.2366 1.21994 11.6282 1.00055 11 1Z" fill="black" fill-opacity="0.4"/>
<path d="M11 1.99961C11.3955 1.99952 11.7787 2.13721 12.0835 2.38899C12.3884 2.64077 12.5959 2.99088 12.6704 3.37907L12.7804 3.94885L13.3305 4.13378C13.6282 4.23629 13.9189 4.35817 14.2007 4.49864L14.7008 4.75854L15.2009 4.42866C15.5281 4.2081 15.9219 4.10814 16.3147 4.14595C16.7076 4.18375 17.0751 4.35694 17.3541 4.63585C17.6332 4.91475 17.8065 5.28199 17.8443 5.6746C17.8822 6.06722 17.7822 6.46075 17.5614 6.78774L17.2314 7.28755L17.4914 7.78735C17.632 8.06897 17.7539 8.35948 17.8565 8.65702L18.0416 9.2068L18.6117 9.31676C18.9977 9.39329 19.3452 9.60127 19.5949 9.90523C19.8447 10.2092 19.9812 10.5903 19.9812 10.9836C19.9812 11.3769 19.8447 11.758 19.5949 12.062C19.3452 12.3659 18.9977 12.5739 18.6117 12.6505L18.0416 12.7604L17.8565 13.3102C17.7578 13.6126 17.6392 13.9081 17.5014 14.1949L17.2414 14.6947L17.5715 15.1945C17.7922 15.5215 17.8922 15.915 17.8543 16.3076C17.8165 16.7002 17.6432 17.0675 17.3641 17.3464C17.0851 17.6253 16.7176 17.7985 16.3248 17.8363C15.9319 17.8741 15.5381 17.7741 15.2109 17.5536L14.7108 17.2237L14.2107 17.4836C13.9289 17.624 13.6382 17.7459 13.3405 17.8484L12.7904 18.0334L12.6804 18.6031C12.6063 18.9917 12.399 19.3423 12.0941 19.5945C11.7892 19.8467 11.4058 19.9846 11.01 19.9846C10.6142 19.9846 10.2308 19.8467 9.92591 19.5945C9.621 19.3423 9.41366 18.9917 9.33963 18.6031L9.22961 18.0334L8.67949 17.8484C8.37863 17.7495 8.0846 17.631 7.7993 17.4936L7.29919 17.2337L6.79908 17.5635C6.47188 17.7841 6.07811 17.8841 5.68525 17.8463C5.2924 17.8085 4.92494 17.6353 4.64587 17.3564C4.36679 17.0775 4.19349 16.7102 4.15566 16.3176C4.11784 15.925 4.21785 15.5315 4.43855 15.2045L4.76863 14.7047L4.49857 14.1949C4.35803 13.9132 4.23608 13.6227 4.13349 13.3252L3.94845 12.7754L3.37832 12.6655C2.99231 12.5889 2.64481 12.3809 2.39508 12.077C2.14534 11.773 2.00884 11.3919 2.00884 10.9986C2.00884 10.6053 2.14534 10.2242 2.39508 9.92023C2.64481 9.61627 2.99231 9.40829 3.37832 9.33175L3.94845 9.2218L4.13349 8.67201C4.23586 8.37277 4.35782 8.08059 4.49857 7.79735L4.75862 7.29755L4.42855 6.79774C4.20785 6.47075 4.10784 6.07721 4.14566 5.6846C4.18349 5.29198 4.35679 4.92475 4.63586 4.64584C4.91494 4.36694 5.2824 4.19374 5.67525 4.15594C6.0681 4.11814 6.46188 4.21809 6.78907 4.43866L7.28918 4.76853L7.78929 4.50863C8.07108 4.36817 8.36177 4.24629 8.65948 4.14377L9.20961 3.95885L9.31963 3.38907C9.39232 2.99735 9.60041 2.6436 9.90755 2.38963C10.2147 2.13567 10.6014 1.99762 11 1.99961ZM11 1C10.3718 1.00055 9.76345 1.21994 9.27966 1.62042C8.79587 2.0209 8.46691 2.57741 8.34942 3.19414C8.00721 3.3102 7.67307 3.44878 7.3492 3.60898C6.82946 3.25677 6.20315 3.09658 5.57801 3.15596C4.95287 3.21535 4.36797 3.49059 3.92394 3.93436C3.47991 4.37812 3.20449 4.96266 3.14507 5.58742C3.08565 6.21218 3.24594 6.8381 3.59837 7.35752C3.43807 7.6812 3.2994 8.01513 3.18328 8.35713C2.56841 8.47706 2.01439 8.8069 1.6161 9.29015C1.2178 9.77341 1 10.38 1 11.0061C1 11.6322 1.2178 12.2388 1.6161 12.722C2.01439 13.2053 2.56841 13.5351 3.18328 13.6551C3.2994 13.9971 3.43807 14.331 3.59837 14.6547C3.24594 15.1741 3.08565 15.8 3.14507 16.4248C3.20449 17.0495 3.47991 17.6341 3.92394 18.0778C4.36797 18.5216 4.95287 18.7969 5.57801 18.8562C6.20315 18.9156 6.82946 18.7554 7.3492 18.4032C7.67308 18.5634 8.00722 18.702 8.34942 18.8181C8.46942 19.4325 8.79946 19.9862 9.28301 20.3843C9.76655 20.7823 10.3735 21 11 21C11.6265 21 12.2334 20.7823 12.717 20.3843C13.2005 19.9862 13.5306 19.4325 13.6506 18.8181C13.9928 18.702 14.3269 18.5634 14.6508 18.4032C15.1705 18.7554 15.7969 18.9156 16.422 18.8562C17.0471 18.7969 17.632 18.5216 18.0761 18.0778C18.5201 17.6341 18.7955 17.0495 18.8549 16.4248C18.9144 15.8 18.7541 15.1741 18.4016 14.6547C18.5619 14.331 18.7006 13.9971 18.8167 13.6551C19.4316 13.5351 19.9856 13.2053 20.3839 12.722C20.7822 12.2388 21 11.6322 21 11.0061C21 10.38 20.7822 9.77341 20.3839 9.29015C19.9856 8.8069 19.4316 8.47706 18.8167 8.35713C18.7006 8.01513 18.5619 7.6812 18.4016 7.35752C18.7541 6.8381 18.9144 6.21218 18.8549 5.58742C18.7955 4.96266 18.5201 4.37812 18.0761 3.93436C17.632 3.49059 17.0471 3.21535 16.422 3.15596C15.7969 3.09658 15.1705 3.25677 14.6508 3.60898C14.3269 3.44878 13.9928 3.3102 13.6506 3.19414C13.5331 2.57741 13.2041 2.0209 12.7203 1.62042C12.2366 1.21994 11.6282 1.00055 11 1Z" stroke="black" stroke-opacity="0.4" stroke-width="0.8" mask="url(#path-1-outside-1_522_4149)"/>
<path d="M10.9997 8.99686C11.3954 8.99686 11.7822 9.11412 12.1111 9.33379C12.4401 9.55347 12.6965 9.86571 12.8479 10.231C12.9993 10.5963 13.0389 10.9983 12.9618 11.3861C12.8846 11.7739 12.694 12.1302 12.4143 12.4097C12.1345 12.6893 11.7781 12.8798 11.39 12.9569C11.002 13.034 10.5997 12.9944 10.2342 12.8431C9.86868 12.6918 9.55625 12.4356 9.33644 12.1068C9.11663 11.778 8.99931 11.3915 8.99931 10.9961C8.99931 10.4659 9.21007 9.95735 9.58522 9.58242C9.96038 9.20749 10.4692 8.99686 10.9997 8.99686ZM10.9997 7.99725C10.4063 7.99725 9.82613 8.17313 9.33267 8.50265C8.83921 8.83216 8.45461 9.30052 8.2275 9.84848C8.00038 10.3964 7.94096 10.9994 8.05674 11.5811C8.17252 12.1628 8.45831 12.6972 8.87796 13.1166C9.29761 13.536 9.83228 13.8216 10.4143 13.9373C10.9964 14.053 11.5998 13.9936 12.1481 13.7666C12.6964 13.5397 13.165 13.1553 13.4947 12.6621C13.8244 12.169 14.0004 11.5892 14.0004 10.9961C14.0004 10.2007 13.6843 9.43798 13.1215 8.87559C12.5588 8.3132 11.7956 7.99725 10.9997 7.99725Z" fill="black" fill-opacity="0.4"/>
<path d="M10.9997 9.19686C11.3559 9.19686 11.704 9.3024 12.0001 9.50012C12.2961 9.69783 12.5269 9.97884 12.6632 10.3076C12.7994 10.6363 12.8351 10.9981 12.7656 11.3471C12.6961 11.6961 12.5247 12.0166 12.2729 12.2683C12.0211 12.5199 11.7003 12.6913 11.351 12.7607C11.0017 12.8302 10.6397 12.7945 10.3107 12.6583C9.98171 12.5221 9.70052 12.2915 9.5027 11.9956C9.30488 11.6998 9.19931 11.3519 9.19931 10.9961C9.19931 10.5189 9.38897 10.0613 9.7266 9.72389C10.0642 9.38645 10.5222 9.19686 10.9997 9.19686ZM10.9997 7.79725C10.3667 7.79725 9.74794 7.98485 9.2216 8.33632C8.69526 8.6878 8.285 9.18738 8.04274 9.7719C7.80047 10.3564 7.73708 10.9996 7.86059 11.6202C7.9841 12.2407 8.28895 12.8107 8.73658 13.258C9.18421 13.7054 9.75451 14.01 10.3754 14.1335C10.9962 14.2569 11.6397 14.1935 12.2245 13.9514C12.8094 13.7093 13.3093 13.2994 13.661 12.7733C14.0127 12.2473 14.2004 11.6288 14.2004 10.9961C14.2004 10.1477 13.8632 9.33401 13.2629 8.73413C12.6627 8.13424 11.8486 7.79725 10.9997 7.79725Z" stroke="black" stroke-opacity="0.4" stroke-width="0.4"/>
</svg>
