<svg width="22" height="22" viewBox="0 0 22 22" fill="none" xmlns="http://www.w3.org/2000/svg">
<mask id="path-1-outside-1_522_4181" maskUnits="userSpaceOnUse" x="0" y="0" width="22" height="22" fill="black">
<rect fill="white" width="22" height="22"/>
<path d="M11 1.99961C11.3955 1.99952 11.7787 2.13721 12.0835 2.38899C12.3884 2.64077 12.5959 2.99088 12.6704 3.37907L12.7804 3.94885L13.3305 4.13378C13.6282 4.23629 13.9189 4.35817 14.2007 4.49864L14.7008 4.75854L15.2009 4.42866C15.5281 4.2081 15.9219 4.10814 16.3147 4.14595C16.7076 4.18375 17.0751 4.35694 17.3541 4.63585C17.6332 4.91475 17.8065 5.28199 17.8443 5.6746C17.8822 6.06722 17.7822 6.46075 17.5614 6.78774L17.2314 7.28755L17.4914 7.78735C17.632 8.06897 17.7539 8.35948 17.8565 8.65702L18.0416 9.2068L18.6117 9.31676C18.9977 9.39329 19.3452 9.60127 19.5949 9.90523C19.8447 10.2092 19.9812 10.5903 19.9812 10.9836C19.9812 11.3769 19.8447 11.758 19.5949 12.062C19.3452 12.3659 18.9977 12.5739 18.6117 12.6505L18.0416 12.7604L17.8565 13.3102C17.7578 13.6126 17.6392 13.9081 17.5014 14.1949L17.2414 14.6947L17.5715 15.1945C17.7922 15.5215 17.8922 15.915 17.8543 16.3076C17.8165 16.7002 17.6432 17.0675 17.3641 17.3464C17.0851 17.6253 16.7176 17.7985 16.3248 17.8363C15.9319 17.8741 15.5381 17.7741 15.2109 17.5536L14.7108 17.2237L14.2107 17.4836C13.9289 17.624 13.6382 17.7459 13.3405 17.8484L12.7904 18.0334L12.6804 18.6031C12.6063 18.9917 12.399 19.3423 12.0941 19.5945C11.7892 19.8467 11.4058 19.9846 11.01 19.9846C10.6142 19.9846 10.2308 19.8467 9.92591 19.5945C9.621 19.3423 9.41366 18.9917 9.33963 18.6031L9.22961 18.0334L8.67949 17.8484C8.37863 17.7495 8.0846 17.631 7.7993 17.4936L7.29919 17.2337L6.79908 17.5635C6.47188 17.7841 6.07811 17.8841 5.68525 17.8463C5.2924 17.8085 4.92494 17.6353 4.64587 17.3564C4.36679 17.0775 4.19349 16.7102 4.15566 16.3176C4.11784 15.925 4.21785 15.5315 4.43855 15.2045L4.76863 14.7047L4.49857 14.1949C4.35803 13.9132 4.23608 13.6227 4.13349 13.3252L3.94845 12.7754L3.37832 12.6655C2.99231 12.5889 2.64481 12.3809 2.39508 12.077C2.14534 11.773 2.00884 11.3919 2.00884 10.9986C2.00884 10.6053 2.14534 10.2242 2.39508 9.92023C2.64481 9.61627 2.99231 9.40829 3.37832 9.33175L3.94845 9.2218L4.13349 8.67201C4.23586 8.37277 4.35782 8.08059 4.49857 7.79735L4.75862 7.29755L4.42855 6.79774C4.20785 6.47075 4.10784 6.07721 4.14566 5.6846C4.18349 5.29199 4.35679 4.92475 4.63586 4.64584C4.91494 4.36694 5.2824 4.19374 5.67525 4.15594C6.0681 4.11814 6.46188 4.21809 6.78907 4.43866L7.28918 4.76853L7.78929 4.50863C8.07108 4.36817 8.36177 4.24629 8.65948 4.14377L9.20961 3.95885L9.31963 3.38907C9.39232 2.99735 9.60041 2.6436 9.90755 2.38963C10.2147 2.13567 10.6014 1.99762 11 1.99961ZM11 1C10.3718 1.00055 9.76345 1.21994 9.27966 1.62042C8.79587 2.0209 8.46691 2.57741 8.34942 3.19414C8.00721 3.3102 7.67307 3.44878 7.3492 3.60898C6.82946 3.25677 6.20315 3.09658 5.57801 3.15596C4.95287 3.21535 4.36797 3.49059 3.92394 3.93436C3.47991 4.37812 3.20449 4.96266 3.14507 5.58742C3.08565 6.21218 3.24594 6.8381 3.59837 7.35752C3.43807 7.6812 3.2994 8.01513 3.18328 8.35713C2.56841 8.47706 2.01439 8.8069 1.6161 9.29015C1.2178 9.77341 1 10.38 1 11.0061C1 11.6322 1.2178 12.2388 1.6161 12.722C2.01439 13.2053 2.56841 13.5351 3.18328 13.6551C3.2994 13.9971 3.43807 14.331 3.59837 14.6547C3.24594 15.1741 3.08565 15.8 3.14507 16.4248C3.20449 17.0495 3.47991 17.6341 3.92394 18.0778C4.36797 18.5216 4.95287 18.7969 5.57801 18.8562C6.20315 18.9156 6.82946 18.7554 7.3492 18.4032C7.67308 18.5634 8.00722 18.702 8.34942 18.8181C8.46942 19.4325 8.79946 19.9862 9.28301 20.3843C9.76655 20.7823 10.3735 21 11 21C11.6265 21 12.2334 20.7823 12.717 20.3843C13.2005 19.9862 13.5306 19.4325 13.6506 18.8181C13.9928 18.702 14.3269 18.5634 14.6508 18.4032C15.1705 18.7554 15.7969 18.9156 16.422 18.8562C17.0471 18.7969 17.632 18.5216 18.0761 18.0778C18.5201 17.6341 18.7955 17.0495 18.8549 16.4248C18.9144 15.8 18.7541 15.1741 18.4016 14.6547C18.5619 14.331 18.7006 13.9971 18.8167 13.6551C19.4316 13.5351 19.9856 13.2053 20.3839 12.722C20.7822 12.2388 21 11.6322 21 11.0061C21 10.38 20.7822 9.77341 20.3839 9.29015C19.9856 8.8069 19.4316 8.47706 18.8167 8.35713C18.7006 8.01513 18.5619 7.6812 18.4016 7.35752C18.7541 6.8381 18.9144 6.21218 18.8549 5.58742C18.7955 4.96266 18.5201 4.37812 18.0761 3.93436C17.632 3.49059 17.0471 3.21535 16.422 3.15596C15.7969 3.09658 15.1705 3.25677 14.6508 3.60898C14.3269 3.44878 13.9928 3.3102 13.6506 3.19414C13.5331 2.57741 13.2041 2.0209 12.7203 1.62042C12.2366 1.21994 11.6282 1.00055 11 1Z"/>
</mask>
<path d="M11 1.99961C11.3955 1.99952 11.7787 2.13721 12.0835 2.38899C12.3884 2.64077 12.5959 2.99088 12.6704 3.37907L12.7804 3.94885L13.3305 4.13378C13.6282 4.23629 13.9189 4.35817 14.2007 4.49864L14.7008 4.75854L15.2009 4.42866C15.5281 4.2081 15.9219 4.10814 16.3147 4.14595C16.7076 4.18375 17.0751 4.35694 17.3541 4.63585C17.6332 4.91475 17.8065 5.28199 17.8443 5.6746C17.8822 6.06722 17.7822 6.46075 17.5614 6.78774L17.2314 7.28755L17.4914 7.78735C17.632 8.06897 17.7539 8.35948 17.8565 8.65702L18.0416 9.2068L18.6117 9.31676C18.9977 9.39329 19.3452 9.60127 19.5949 9.90523C19.8447 10.2092 19.9812 10.5903 19.9812 10.9836C19.9812 11.3769 19.8447 11.758 19.5949 12.062C19.3452 12.3659 18.9977 12.5739 18.6117 12.6505L18.0416 12.7604L17.8565 13.3102C17.7578 13.6126 17.6392 13.9081 17.5014 14.1949L17.2414 14.6947L17.5715 15.1945C17.7922 15.5215 17.8922 15.915 17.8543 16.3076C17.8165 16.7002 17.6432 17.0675 17.3641 17.3464C17.0851 17.6253 16.7176 17.7985 16.3248 17.8363C15.9319 17.8741 15.5381 17.7741 15.2109 17.5536L14.7108 17.2237L14.2107 17.4836C13.9289 17.624 13.6382 17.7459 13.3405 17.8484L12.7904 18.0334L12.6804 18.6031C12.6063 18.9917 12.399 19.3423 12.0941 19.5945C11.7892 19.8467 11.4058 19.9846 11.01 19.9846C10.6142 19.9846 10.2308 19.8467 9.92591 19.5945C9.621 19.3423 9.41366 18.9917 9.33963 18.6031L9.22961 18.0334L8.67949 17.8484C8.37863 17.7495 8.0846 17.631 7.7993 17.4936L7.29919 17.2337L6.79908 17.5635C6.47188 17.7841 6.07811 17.8841 5.68525 17.8463C5.2924 17.8085 4.92494 17.6353 4.64587 17.3564C4.36679 17.0775 4.19349 16.7102 4.15566 16.3176C4.11784 15.925 4.21785 15.5315 4.43855 15.2045L4.76863 14.7047L4.49857 14.1949C4.35803 13.9132 4.23608 13.6227 4.13349 13.3252L3.94845 12.7754L3.37832 12.6655C2.99231 12.5889 2.64481 12.3809 2.39508 12.077C2.14534 11.773 2.00884 11.3919 2.00884 10.9986C2.00884 10.6053 2.14534 10.2242 2.39508 9.92023C2.64481 9.61627 2.99231 9.40829 3.37832 9.33175L3.94845 9.2218L4.13349 8.67201C4.23586 8.37277 4.35782 8.08059 4.49857 7.79735L4.75862 7.29755L4.42855 6.79774C4.20785 6.47075 4.10784 6.07721 4.14566 5.6846C4.18349 5.29199 4.35679 4.92475 4.63586 4.64584C4.91494 4.36694 5.2824 4.19374 5.67525 4.15594C6.0681 4.11814 6.46188 4.21809 6.78907 4.43866L7.28918 4.76853L7.78929 4.50863C8.07108 4.36817 8.36177 4.24629 8.65948 4.14377L9.20961 3.95885L9.31963 3.38907C9.39232 2.99735 9.60041 2.6436 9.90755 2.38963C10.2147 2.13567 10.6014 1.99762 11 1.99961ZM11 1C10.3718 1.00055 9.76345 1.21994 9.27966 1.62042C8.79587 2.0209 8.46691 2.57741 8.34942 3.19414C8.00721 3.3102 7.67307 3.44878 7.3492 3.60898C6.82946 3.25677 6.20315 3.09658 5.57801 3.15596C4.95287 3.21535 4.36797 3.49059 3.92394 3.93436C3.47991 4.37812 3.20449 4.96266 3.14507 5.58742C3.08565 6.21218 3.24594 6.8381 3.59837 7.35752C3.43807 7.6812 3.2994 8.01513 3.18328 8.35713C2.56841 8.47706 2.01439 8.8069 1.6161 9.29015C1.2178 9.77341 1 10.38 1 11.0061C1 11.6322 1.2178 12.2388 1.6161 12.722C2.01439 13.2053 2.56841 13.5351 3.18328 13.6551C3.2994 13.9971 3.43807 14.331 3.59837 14.6547C3.24594 15.1741 3.08565 15.8 3.14507 16.4248C3.20449 17.0495 3.47991 17.6341 3.92394 18.0778C4.36797 18.5216 4.95287 18.7969 5.57801 18.8562C6.20315 18.9156 6.82946 18.7554 7.3492 18.4032C7.67308 18.5634 8.00722 18.702 8.34942 18.8181C8.46942 19.4325 8.79946 19.9862 9.28301 20.3843C9.76655 20.7823 10.3735 21 11 21C11.6265 21 12.2334 20.7823 12.717 20.3843C13.2005 19.9862 13.5306 19.4325 13.6506 18.8181C13.9928 18.702 14.3269 18.5634 14.6508 18.4032C15.1705 18.7554 15.7969 18.9156 16.422 18.8562C17.0471 18.7969 17.632 18.5216 18.0761 18.0778C18.5201 17.6341 18.7955 17.0495 18.8549 16.4248C18.9144 15.8 18.7541 15.1741 18.4016 14.6547C18.5619 14.331 18.7006 13.9971 18.8167 13.6551C19.4316 13.5351 19.9856 13.2053 20.3839 12.722C20.7822 12.2388 21 11.6322 21 11.0061C21 10.38 20.7822 9.77341 20.3839 9.29015C19.9856 8.8069 19.4316 8.47706 18.8167 8.35713C18.7006 8.01513 18.5619 7.6812 18.4016 7.35752C18.7541 6.8381 18.9144 6.21218 18.8549 5.58742C18.7955 4.96266 18.5201 4.37812 18.0761 3.93436C17.632 3.49059 17.0471 3.21535 16.422 3.15596C15.7969 3.09658 15.1705 3.25677 14.6508 3.60898C14.3269 3.44878 13.9928 3.3102 13.6506 3.19414C13.5331 2.57741 13.2041 2.0209 12.7203 1.62042C12.2366 1.21994 11.6282 1.00055 11 1Z" fill="#A889C8"/>
<path d="M11 1.99961C11.3955 1.99952 11.7787 2.13721 12.0835 2.38899C12.3884 2.64077 12.5959 2.99088 12.6704 3.37907L12.7804 3.94885L13.3305 4.13378C13.6282 4.23629 13.9189 4.35817 14.2007 4.49864L14.7008 4.75854L15.2009 4.42866C15.5281 4.2081 15.9219 4.10814 16.3147 4.14595C16.7076 4.18375 17.0751 4.35694 17.3541 4.63585C17.6332 4.91475 17.8065 5.28199 17.8443 5.6746C17.8822 6.06722 17.7822 6.46075 17.5614 6.78774L17.2314 7.28755L17.4914 7.78735C17.632 8.06897 17.7539 8.35948 17.8565 8.65702L18.0416 9.2068L18.6117 9.31676C18.9977 9.39329 19.3452 9.60127 19.5949 9.90523C19.8447 10.2092 19.9812 10.5903 19.9812 10.9836C19.9812 11.3769 19.8447 11.758 19.5949 12.062C19.3452 12.3659 18.9977 12.5739 18.6117 12.6505L18.0416 12.7604L17.8565 13.3102C17.7578 13.6126 17.6392 13.9081 17.5014 14.1949L17.2414 14.6947L17.5715 15.1945C17.7922 15.5215 17.8922 15.915 17.8543 16.3076C17.8165 16.7002 17.6432 17.0675 17.3641 17.3464C17.0851 17.6253 16.7176 17.7985 16.3248 17.8363C15.9319 17.8741 15.5381 17.7741 15.2109 17.5536L14.7108 17.2237L14.2107 17.4836C13.9289 17.624 13.6382 17.7459 13.3405 17.8484L12.7904 18.0334L12.6804 18.6031C12.6063 18.9917 12.399 19.3423 12.0941 19.5945C11.7892 19.8467 11.4058 19.9846 11.01 19.9846C10.6142 19.9846 10.2308 19.8467 9.92591 19.5945C9.621 19.3423 9.41366 18.9917 9.33963 18.6031L9.22961 18.0334L8.67949 17.8484C8.37863 17.7495 8.0846 17.631 7.7993 17.4936L7.29919 17.2337L6.79908 17.5635C6.47188 17.7841 6.07811 17.8841 5.68525 17.8463C5.2924 17.8085 4.92494 17.6353 4.64587 17.3564C4.36679 17.0775 4.19349 16.7102 4.15566 16.3176C4.11784 15.925 4.21785 15.5315 4.43855 15.2045L4.76863 14.7047L4.49857 14.1949C4.35803 13.9132 4.23608 13.6227 4.13349 13.3252L3.94845 12.7754L3.37832 12.6655C2.99231 12.5889 2.64481 12.3809 2.39508 12.077C2.14534 11.773 2.00884 11.3919 2.00884 10.9986C2.00884 10.6053 2.14534 10.2242 2.39508 9.92023C2.64481 9.61627 2.99231 9.40829 3.37832 9.33175L3.94845 9.2218L4.13349 8.67201C4.23586 8.37277 4.35782 8.08059 4.49857 7.79735L4.75862 7.29755L4.42855 6.79774C4.20785 6.47075 4.10784 6.07721 4.14566 5.6846C4.18349 5.29199 4.35679 4.92475 4.63586 4.64584C4.91494 4.36694 5.2824 4.19374 5.67525 4.15594C6.0681 4.11814 6.46188 4.21809 6.78907 4.43866L7.28918 4.76853L7.78929 4.50863C8.07108 4.36817 8.36177 4.24629 8.65948 4.14377L9.20961 3.95885L9.31963 3.38907C9.39232 2.99735 9.60041 2.6436 9.90755 2.38963C10.2147 2.13567 10.6014 1.99762 11 1.99961ZM11 1C10.3718 1.00055 9.76345 1.21994 9.27966 1.62042C8.79587 2.0209 8.46691 2.57741 8.34942 3.19414C8.00721 3.3102 7.67307 3.44878 7.3492 3.60898C6.82946 3.25677 6.20315 3.09658 5.57801 3.15596C4.95287 3.21535 4.36797 3.49059 3.92394 3.93436C3.47991 4.37812 3.20449 4.96266 3.14507 5.58742C3.08565 6.21218 3.24594 6.8381 3.59837 7.35752C3.43807 7.6812 3.2994 8.01513 3.18328 8.35713C2.56841 8.47706 2.01439 8.8069 1.6161 9.29015C1.2178 9.77341 1 10.38 1 11.0061C1 11.6322 1.2178 12.2388 1.6161 12.722C2.01439 13.2053 2.56841 13.5351 3.18328 13.6551C3.2994 13.9971 3.43807 14.331 3.59837 14.6547C3.24594 15.1741 3.08565 15.8 3.14507 16.4248C3.20449 17.0495 3.47991 17.6341 3.92394 18.0778C4.36797 18.5216 4.95287 18.7969 5.57801 18.8562C6.20315 18.9156 6.82946 18.7554 7.3492 18.4032C7.67308 18.5634 8.00722 18.702 8.34942 18.8181C8.46942 19.4325 8.79946 19.9862 9.28301 20.3843C9.76655 20.7823 10.3735 21 11 21C11.6265 21 12.2334 20.7823 12.717 20.3843C13.2005 19.9862 13.5306 19.4325 13.6506 18.8181C13.9928 18.702 14.3269 18.5634 14.6508 18.4032C15.1705 18.7554 15.7969 18.9156 16.422 18.8562C17.0471 18.7969 17.632 18.5216 18.0761 18.0778C18.5201 17.6341 18.7955 17.0495 18.8549 16.4248C18.9144 15.8 18.7541 15.1741 18.4016 14.6547C18.5619 14.331 18.7006 13.9971 18.8167 13.6551C19.4316 13.5351 19.9856 13.2053 20.3839 12.722C20.7822 12.2388 21 11.6322 21 11.0061C21 10.38 20.7822 9.77341 20.3839 9.29015C19.9856 8.8069 19.4316 8.47706 18.8167 8.35713C18.7006 8.01513 18.5619 7.6812 18.4016 7.35752C18.7541 6.8381 18.9144 6.21218 18.8549 5.58742C18.7955 4.96266 18.5201 4.37812 18.0761 3.93436C17.632 3.49059 17.0471 3.21535 16.422 3.15596C15.7969 3.09658 15.1705 3.25677 14.6508 3.60898C14.3269 3.44878 13.9928 3.3102 13.6506 3.19414C13.5331 2.57741 13.2041 2.0209 12.7203 1.62042C12.2366 1.21994 11.6282 1.00055 11 1Z" stroke="#A889C8" stroke-width="0.8" mask="url(#path-1-outside-1_522_4181)"/>
<path d="M5.34136 13.28L5.34099 13.2791C5.20391 12.9418 5.09743 12.5929 5.02283 12.2366C5.00921 12.1716 5.00851 12.1047 5.02077 12.0395C5.03303 11.9743 5.05803 11.9121 5.09434 11.8565C5.13064 11.801 5.17753 11.7531 5.23233 11.7156C5.28713 11.6782 5.34876 11.6519 5.41372 11.6383C5.47867 11.6246 5.54567 11.6239 5.61089 11.6362C5.67611 11.6484 5.73829 11.6734 5.79388 11.7097C5.84946 11.7459 5.89736 11.7928 5.93484 11.8476C5.97221 11.9022 5.99848 11.9636 6.01217 12.0284M5.34136 13.28L6.01229 12.029C6.01225 12.0288 6.01221 12.0286 6.01217 12.0284M5.34136 13.28C5.3789 13.3713 5.44262 13.4494 5.52449 13.5046C5.57381 13.5378 5.62838 13.5618 5.68556 13.5757M5.34136 13.28L5.68556 13.5757M6.01217 12.0284C6.07554 12.323 6.16485 12.6114 6.27905 12.8903M6.01217 12.0284L6.27905 12.8903M6.27905 12.8903C6.31009 12.9659 6.3221 13.0481 6.314 13.1295C6.30846 13.1852 6.29362 13.2393 6.27027 13.2898C6.27211 13.2903 6.27395 13.2908 6.27579 13.2913C6.404 13.3259 6.51326 13.41 6.57949 13.5251M6.27905 12.8903L6.36276 13.6498M6.57949 13.5251L6.36276 13.6498M6.57949 13.5251C6.57943 13.525 6.57937 13.5249 6.57931 13.5248L6.36276 13.6498M6.57949 13.5251C7.01129 14.2735 7.62703 14.8995 8.36845 15.3437C9.10903 15.7874 9.95054 16.0353 10.8135 16.0637M6.36276 13.6498C6.81584 14.4351 7.46196 15.092 8.23995 15.5582C9.01795 16.0243 9.90211 16.2844 10.8087 16.3137M10.8135 16.0637C10.8119 16.0637 10.8103 16.0637 10.8087 16.0637V16.3137M10.8135 16.0637C10.9444 16.065 11.0696 16.1175 11.1623 16.2101C11.2561 16.3038 11.3088 16.431 11.3088 16.5636C11.3088 16.6963 11.2561 16.8234 11.1623 16.9172C11.0685 17.0109 10.9413 17.0635 10.8087 17.0635H10.7887H10.7807L10.7807 17.0634C9.74672 17.0301 8.73837 16.7335 7.85119 16.2017C6.96401 15.6699 6.22736 14.9205 5.71106 14.0245L5.71095 14.0243C5.64472 13.9091 5.62698 13.7724 5.66164 13.6441C5.66799 13.6206 5.676 13.5978 5.68556 13.5757M10.8135 16.0637C10.8146 16.0638 10.8157 16.0638 10.8168 16.0639L10.8087 16.3137M10.8087 16.3137L5.68556 13.5757M16.2648 9.55645L16.2779 9.55646L16.2909 9.5551C16.3458 9.54936 16.3992 9.53452 16.4491 9.51122C16.5673 9.46439 16.6634 9.37419 16.7176 9.25872C16.7739 9.13871 16.7802 9.00126 16.7351 8.8766L16.7347 8.87558C16.3036 7.69869 15.5214 6.68242 14.4939 5.96398C13.4664 5.24554 12.243 4.85954 10.9891 4.85809H10.9888C10.8562 4.85809 10.729 4.91072 10.6352 5.00445L10.8116 5.18093L10.6352 5.00445C10.5415 5.09819 10.4887 5.22536 10.4887 5.35799C10.4887 5.49062 10.5415 5.61779 10.6352 5.71153L10.8106 5.53611L10.6352 5.71153C10.729 5.80519 10.856 5.85781 10.9885 5.85789C12.0387 5.85921 13.063 6.18316 13.9228 6.78582C14.7826 7.38848 15.4361 8.2407 15.795 9.22699C15.83 9.32345 15.8938 9.40679 15.9778 9.46572C16.0619 9.52473 16.1621 9.55641 16.2648 9.55645ZM10.9488 9.21159C11.295 9.21159 11.6335 9.3142 11.9213 9.50642C12.2092 9.69865 12.4335 9.97185 12.566 10.2915C12.6985 10.6111 12.7331 10.9627 12.6656 11.302C12.5981 11.6413 12.4314 11.953 12.1866 12.1976C11.9418 12.4423 11.6299 12.6089 11.2903 12.6764C10.9507 12.7439 10.5987 12.7093 10.2789 12.5769C9.95899 12.4444 9.68562 12.2202 9.4933 11.9326C9.30098 11.6449 9.19833 11.3067 9.19833 10.9608C9.19833 10.4969 9.38272 10.052 9.71097 9.72397C10.0392 9.39592 10.4845 9.21159 10.9488 9.21159ZM10.9488 7.71198C10.3059 7.71198 9.67743 7.9025 9.14286 8.25946C8.6083 8.61643 8.19163 9.12382 7.94558 9.71748C7.69952 10.3111 7.63514 10.9644 7.76058 11.5947C7.88602 12.2249 8.19564 12.8038 8.65026 13.2581C9.10489 13.7125 9.6841 14.0219 10.3146 14.1472C10.9452 14.2726 11.5987 14.2082 12.1927 13.9624C12.7867 13.7165 13.2944 13.3001 13.6516 12.7658C14.0088 12.2315 14.1994 11.6034 14.1994 10.9608C14.1994 10.0991 13.8569 9.27274 13.2473 8.66348C12.6377 8.05422 11.8109 7.71198 10.9488 7.71198Z" fill="#A889C8" stroke="#A889C8" stroke-width="0.5"/>
</svg>
