<svg width="15" height="15" viewBox="0 0 15 15" fill="none" xmlns="http://www.w3.org/2000/svg">
<g clip-path="url(#clip0_2061_4654)">
<path d="M8.31578 7.13994L8.6965 6.61482C8.6965 6.45446 6.3428 5.31137 5.93958 7.82636C5.68827 7.82018 5.43697 7.83903 5.18939 7.88262C5.873 4.41021 9.08847 5.64333 9.18975 6.19284C9.40261 6.03342 9.77114 5.71272 9.77114 5.71272V7.14088H8.31672L8.31578 7.13994ZM6.41032 9.20857C6.41032 9.38018 8.76402 10.5683 9.16724 7.93983C9.49169 7.93983 9.6708 7.98577 9.92868 7.95108C9.25632 11.4141 6.0521 10.2373 5.95083 9.69994C5.73796 9.85936 5.40226 10.1801 5.40226 10.1801V8.73971H6.79197C6.79197 8.73971 6.56692 8.99102 6.41032 9.20857ZM11.5191 11.7095C12.8863 11.7095 14.004 10.5748 14.004 9.19263C13.9853 8.36555 13.628 7.64069 12.995 7.15495C12.6568 6.88456 12.25 6.71375 11.8201 6.6617L11.099 6.57262L10.9611 5.85994C10.8526 5.29161 10.6119 4.75675 10.2586 4.29854C9.90533 3.84033 9.44924 3.4716 8.92718 3.22211C8.48362 2.99123 7.99063 2.87152 7.49058 2.87328C6.97858 2.87328 6.47127 2.99893 5.98646 3.25681C4.97372 3.73974 4.22916 4.72154 4.01723 5.85432L3.88314 6.56887L3.16202 6.66264C2.72952 6.7203 2.3203 6.89254 1.97673 7.16151C1.66995 7.39803 1.42209 7.70237 1.25257 8.05068C1.08305 8.399 0.996474 8.78183 0.999619 9.16919C0.999619 10.5589 2.09676 11.6823 3.45459 11.6982L4.32668 11.7076H11.5191V11.7095ZM0 9.16919C0 8.06548 0.489495 7.05649 1.36158 6.37476C1.84633 5.99468 2.42394 5.7512 3.03449 5.66958C3.30362 4.23205 4.24791 2.98018 5.55698 2.35471C6.1528 2.03862 6.81704 1.87344 7.49152 1.87366C8.16856 1.87366 8.83716 2.04057 9.39886 2.34065C10.7257 2.97361 11.6635 4.22548 11.9429 5.66958C12.557 5.74388 13.1382 5.98773 13.6215 6.37382C14.4832 7.03679 14.9783 8.04766 15.0037 9.17013C15.0037 11.1225 13.4433 12.7101 11.5191 12.7101H3.44428V12.6997C1.53412 12.6763 0 11.1037 0 9.16919Z" fill="#A889C8"/>
</g>
<defs>
<clipPath id="clip0_2061_4654">
<rect width="15" height="15" fill="white"/>
</clipPath>
</defs>
</svg>
