<svg width="15" height="15" viewBox="0 0 15 15" fill="none" xmlns="http://www.w3.org/2000/svg">
<path opacity="0.8" d="M7.5 1.25C7.91667 1.25 8.125 1.45833 8.125 1.875V3.75C8.125 4.16667 7.91667 4.375 7.5 4.375C7.08333 4.375 6.875 4.16667 6.875 3.75V1.875C6.875 1.45833 7.08333 1.25 7.5 1.25Z" fill="#A889C8"/>
<path opacity="0.4" d="M7.5 10.625C7.91667 10.625 8.125 10.8333 8.125 11.25V13.125C8.125 13.5417 7.91667 13.75 7.5 13.75C7.08333 13.75 6.875 13.5417 6.875 13.125V11.25C6.875 10.8333 7.08333 10.625 7.5 10.625Z" fill="#A889C8"/>
<path opacity="0.2" d="M13.75 7.5C13.75 7.91667 13.5417 8.125 13.125 8.125H11.25C10.8333 8.125 10.625 7.91667 10.625 7.5C10.625 7.08333 10.8333 6.875 11.25 6.875H13.125C13.5417 6.875 13.75 7.08333 13.75 7.5Z" fill="#A889C8"/>
<path opacity="0.6" d="M4.375 7.5C4.375 7.91667 4.16667 8.125 3.75 8.125H1.875C1.45833 8.125 1.25 7.91667 1.25 7.5C1.25 7.08333 1.45833 6.875 1.875 6.875H3.75C4.16667 6.875 4.375 7.08333 4.375 7.5Z" fill="#A889C8"/>
<path opacity="0.1" d="M11.9193 3.08124C12.2139 3.3754 12.2139 3.66978 11.9193 3.96436L10.5937 5.29061C10.2991 5.58519 10.0045 5.58519 9.70995 5.29061C9.41537 4.99603 9.41537 4.70124 9.70995 4.40624L11.0356 3.08124C11.3302 2.78624 11.6247 2.78624 11.9193 3.08124Z" fill="#A889C8"/>
<path opacity="0.5" d="M5.28993 9.70939C5.58452 10.004 5.58452 10.2986 5.28993 10.5931L3.96431 11.9194C3.66972 12.214 3.37514 12.214 3.08056 11.9194C2.78597 11.6244 2.78597 11.3296 3.08056 11.035L4.40618 9.71002C4.70076 9.41502 4.99535 9.41502 5.28993 9.71002V9.70939Z" fill="#A889C8"/>
<path opacity="0.3" d="M11.9188 11.9194C11.6247 12.214 11.3303 12.214 11.0357 11.9194L9.70946 10.5938C9.41488 10.2992 9.41488 10.0046 9.70946 9.71002C10.004 9.41502 10.2986 9.41502 10.5932 9.71002L11.9195 11.035C12.214 11.33 12.214 11.6248 11.9195 11.9194H11.9188Z" fill="#A889C8"/>
<path opacity="0.7" d="M5.29056 5.29C4.99597 5.58458 4.70139 5.58458 4.40681 5.29L3.08056 3.96438C2.78597 3.66979 2.78597 3.37521 3.08056 3.08063C3.37514 2.78563 3.66972 2.78563 3.96431 3.08063L5.29056 4.40562C5.58514 4.70062 5.58514 4.99542 5.29056 5.29Z" fill="#A889C8"/>
</svg>
