<svg width="22" height="22" viewBox="0 0 22 22" fill="none" xmlns="http://www.w3.org/2000/svg">
<path d="M10.9331 2.12256C15.8762 2.12256 19.9223 6.16588 19.8335 11.1108L19.8218 11.5718C19.5799 16.304 15.6339 20.1001 10.8442 20.1001C5.90022 20.1 1.85596 16.0549 1.85596 11.1108C1.85601 10.8215 1.95261 10.5728 2.12939 10.396C2.30618 10.2192 2.55494 10.1226 2.84424 10.1226C3.13363 10.1226 3.38323 10.2192 3.56006 10.396C3.73668 10.5728 3.83345 10.8217 3.8335 11.1108C3.8335 14.9666 6.98845 18.1224 10.8442 18.1226C14.7001 18.1226 17.856 14.9667 17.856 11.1108C17.8558 7.25506 14.7 4.1001 10.8442 4.1001C9.19296 4.10015 7.61656 4.72263 6.3374 5.75146L7.81201 5.67822C8.39393 5.58456 8.88969 5.97313 8.89893 6.56104L8.91162 6.67041C8.94697 7.21203 8.56222 7.65551 8.00049 7.65576V7.65479L5.60693 7.83252L5.6001 7.8335H5.42236C4.21556 7.8335 3.19319 6.90522 3.1001 5.69678V5.6958L2.92334 3.30518C2.82585 2.71981 3.21673 2.22027 3.80811 2.2124C4.39489 2.11582 4.89499 2.50938 4.89893 3.104L5.05322 4.3374C6.65333 2.97186 8.7492 2.12262 10.9331 2.12256Z" fill="#A889C8" stroke="#A889C8" stroke-width="0.2"/>
</svg>
