<svg width="22" height="22" viewBox="0 0 22 22" fill="none" xmlns="http://www.w3.org/2000/svg">
<path d="M6.58928 14.3025C6.13666 14.3021 5.68896 14.2086 5.27396 14.0279C4.85896 13.8473 4.48552 13.5832 4.17682 13.2522C3.8681 12.9212 3.6307 12.5304 3.47934 12.1038C3.32799 11.6773 3.26591 11.2242 3.29697 10.7726C3.41949 9.11758 4.74682 7.8081 6.40339 7.70799C7.64152 7.63909 8.81233 8.27524 9.42841 9.35137C9.57904 9.61717 9.91667 9.71048 10.1825 9.55985C10.4483 9.4092 10.5416 9.07158 10.3909 8.80579C9.56125 7.35869 7.98241 6.50763 6.31754 6.6102C4.12117 6.75262 2.36508 8.49083 2.20025 10.6857C2.15675 11.2887 2.23795 11.8941 2.4388 12.4643C2.63964 13.0345 2.95583 13.5572 3.36763 13.9998C3.77947 14.4424 4.27808 14.7953 4.83237 15.0367C5.38666 15.278 5.98473 15.4025 6.58928 15.4025C8.21839 15.4025 9.63411 14.5115 10.3931 13.1948C10.4531 13.0913 10.4773 12.9708 10.462 12.8521C10.4467 12.7334 10.3927 12.6231 10.3083 12.5381L10.2919 12.5227C10.232 12.464 10.1594 12.4199 10.0797 12.3938C10.0001 12.3678 9.91544 12.3604 9.83245 12.3723C9.74946 12.3842 9.67033 12.4151 9.60121 12.4625C9.53209 12.51 9.47483 12.5727 9.43387 12.6459C8.85177 13.6687 7.76615 14.3009 6.58928 14.3025ZM15.661 6.6102C13.9957 6.50722 12.4163 7.35837 11.5866 8.80579C11.4597 9.06872 11.5585 9.38512 11.8125 9.52905C12.0665 9.67305 12.3886 9.59535 12.5491 9.35137C13.1651 8.27524 14.336 7.63909 15.5741 7.70799C17.231 7.80752 18.559 9.11715 18.6815 10.7726C18.7126 11.2242 18.6505 11.6773 18.4992 12.1038C18.3478 12.5304 18.1104 12.9212 17.8017 13.2522C17.493 13.5832 17.1196 13.8473 16.7046 14.0279C16.2896 14.2086 15.8419 14.3021 15.3893 14.3025C14.2129 14.3005 13.1277 13.6683 12.5457 12.6459C12.5048 12.5725 12.4475 12.5096 12.3783 12.4621C12.3091 12.4145 12.2298 12.3835 12.1467 12.3716C12.0636 12.3597 11.9788 12.3671 11.899 12.3933C11.8192 12.4195 11.7466 12.4638 11.6867 12.5227L11.6702 12.5381C11.5858 12.6231 11.5318 12.7334 11.5165 12.8521C11.5012 12.9708 11.5254 13.0913 11.5855 13.1948C12.3661 14.5592 13.8174 15.4015 15.3893 15.4025C15.9939 15.4025 16.5919 15.278 17.1462 15.0367C17.7005 14.7953 18.1991 14.4424 18.6109 13.9998C19.0227 13.5572 19.3389 13.0346 19.5398 12.4643C19.7406 11.8941 19.8218 11.2887 19.7783 10.6857C19.6134 8.49083 17.8573 6.75262 15.661 6.6102Z" fill="#A889C8"/>
<path d="M13.4642 11.8276H8.51425C8.05855 11.8276 7.68921 11.4583 7.68921 11.0027C7.68921 10.5471 8.05855 10.1777 8.51425 10.1777H13.4642C13.9198 10.1777 14.2892 10.5471 14.2892 11.0027C14.2892 11.4583 13.9198 11.8276 13.4642 11.8276Z" fill="#A889C8"/>
</svg>
