<svg width="26" height="26" viewBox="0 0 26 26" fill="none" xmlns="http://www.w3.org/2000/svg">
<path d="M11.9211 0.0170593C9.96547 0.180885 8.00296 0.791822 6.40224 1.73724C5.41245 2.31746 4.64793 2.90792 3.82879 3.72705C3.11888 4.43697 2.76733 4.86018 2.28268 5.57351C1.5045 6.72371 1.07446 7.58722 0.658066 8.85005C-0.591112 12.6249 -0.0450234 16.7001 2.15298 19.9937C4.02334 22.7924 6.97563 24.7993 10.2658 25.4989C11.1942 25.7003 11.9485 25.772 13.0304 25.772C14.2147 25.772 15.0304 25.6764 16.1329 25.4034C20.7712 24.26 24.4334 20.6387 25.6109 16.0345C25.8805 14.9731 26 14.0208 26 12.8945C26 11.461 25.7952 10.1982 25.3481 8.85005C23.6928 3.87722 19.3207 0.447104 14.1089 0.027298C13.7096 -0.00341988 12.2522 -0.0102463 11.9211 0.0170593ZM9.51494 7.09574C9.70608 7.18106 9.80847 7.27663 9.90062 7.45069C9.96888 7.57356 9.97571 7.64865 9.98595 8.24252L9.9996 8.90124H10.5969C11.2522 8.90124 11.3921 8.92513 11.5764 9.07531C11.9621 9.39613 11.9075 10.0344 11.4706 10.2904C11.3102 10.3859 11.2966 10.3859 10.6515 10.3962L9.9996 10.4098L9.98595 11.0617C9.97571 11.7034 9.97229 11.7204 9.88355 11.874C9.74021 12.1163 9.51494 12.246 9.23849 12.246C9.03029 12.246 8.8494 12.1744 8.70264 12.031C8.50809 11.8467 8.49103 11.7614 8.49103 11.0481V10.403H7.88692C7.47052 10.3996 7.23844 10.3859 7.1497 10.3552C6.6002 10.1572 6.45002 9.49853 6.86641 9.11285C6.94833 9.03776 7.07461 8.95926 7.14628 8.93879C7.22137 8.91831 7.55244 8.90124 7.88692 8.90124H8.49103V8.25276C8.49103 7.50189 8.50468 7.45069 8.74701 7.23567C8.99616 7.01723 9.2419 6.96945 9.51494 7.09574ZM17.4605 7.5565C17.8735 7.72715 18.0476 8.24252 17.8189 8.62137C17.7609 8.72035 15.8905 10.6078 12.9963 13.4986L8.26918 18.2121L8.07122 18.2701C7.79135 18.352 7.54561 18.294 7.33742 18.1028C7.12581 17.9117 7.06096 17.5226 7.19407 17.2462C7.29646 17.0346 16.6858 7.66572 16.8871 7.57356C17.0714 7.48824 17.2865 7.48141 17.4605 7.5565ZM17.9623 15.5192C18.249 15.6489 18.4025 15.8844 18.4025 16.1881C18.4025 16.5294 18.1909 16.8229 17.8803 16.9185C17.7882 16.9458 17.1636 16.9561 15.8052 16.9561C13.6959 16.9561 13.7062 16.9561 13.457 16.7683C13.126 16.5124 13.1089 15.9526 13.4297 15.6523C13.6379 15.4509 13.5833 15.4577 15.795 15.4577C17.6926 15.4543 17.836 15.4611 17.9623 15.5192Z" fill="#A889C8" fill-opacity="0.97"/>
</svg>
