<svg width="4" height="4" viewBox="0 0 4 4" fill="none" xmlns="http://www.w3.org/2000/svg">
<path d="M2 1.37867L3.24276 0.135914C3.28321 0.0935702 3.33171 0.0597365 3.38542 0.0364012C3.43912 0.0130658 3.49695 0.000699568 3.55551 2.88319e-05C3.61406 -0.000641904 3.67216 0.0103964 3.72639 0.0324953C3.78061 0.0545943 3.82988 0.087308 3.87129 0.128715C3.91269 0.170121 3.94541 0.219386 3.9675 0.273614C3.9896 0.327842 4.00064 0.385939 3.99997 0.444493C3.9993 0.503047 3.98693 0.560877 3.9636 0.614585C3.94026 0.668292 3.90643 0.716794 3.86409 0.757241L2.62133 2L3.86409 3.24276C3.90643 3.28321 3.94026 3.33171 3.9636 3.38542C3.98693 3.43912 3.9993 3.49695 3.99997 3.55551C4.00064 3.61406 3.9896 3.67216 3.9675 3.72639C3.94541 3.78061 3.91269 3.82988 3.87129 3.87129C3.82988 3.91269 3.78061 3.94541 3.72639 3.9675C3.67216 3.9896 3.61406 4.00064 3.55551 3.99997C3.49695 3.9993 3.43912 3.98693 3.38542 3.9636C3.33171 3.94026 3.28321 3.90643 3.24276 3.86409L2 2.62133L0.757241 3.86409C0.716794 3.90643 0.668292 3.94026 0.614585 3.9636C0.560877 3.98693 0.503047 3.9993 0.444493 3.99997C0.385939 4.00064 0.327842 3.9896 0.273614 3.9675C0.219386 3.94541 0.170121 3.91269 0.128715 3.87129C0.087308 3.82988 0.0545943 3.78061 0.0324953 3.72639C0.0103964 3.67216 -0.000641904 3.61406 2.88319e-05 3.55551C0.000699568 3.49695 0.0130658 3.43912 0.0364012 3.38542C0.0597365 3.33171 0.0935702 3.28321 0.135914 3.24276L1.37867 2L0.135914 0.757241C0.0935702 0.716794 0.0597365 0.668292 0.0364012 0.614585C0.0130658 0.560877 0.000699568 0.503047 2.88319e-05 0.444493C-0.000641904 0.385939 0.0103964 0.327842 0.0324953 0.273614C0.0545943 0.219386 0.087308 0.170121 0.128715 0.128715C0.170121 0.087308 0.219386 0.0545943 0.273614 0.0324953C0.327842 0.0103964 0.385939 -0.000641904 0.444493 2.88319e-05C0.503047 0.000699568 0.560877 0.0130658 0.614585 0.0364012C0.668292 0.0597365 0.716794 0.0935702 0.757241 0.135914L2 1.37867Z" fill="#5A5A68"/>
</svg>
