<svg width="16" height="16" viewBox="0 0 16 16" fill="none" xmlns="http://www.w3.org/2000/svg">
<g clip-path="url(#clip0_2424_5198)">
<path d="M8.015 15.97C9.0638 15.9714 10.1025 15.7655 11.0715 15.3641C12.0404 14.9627 12.9205 14.3737 13.661 13.631C14.4037 12.8905 14.9927 12.0105 15.3941 11.0415C15.7956 10.0726 16.0015 9.03381 16 7.985C16.0015 6.9362 15.7956 5.89745 15.3941 4.9285C14.9927 3.95954 14.4037 3.07951 13.661 2.33901C12.9205 1.59627 12.0405 1.00726 11.0715 0.605851C10.1026 0.204439 9.0638 -0.00145634 8.015 7.75361e-06C6.96619 -0.00145634 5.92744 0.204439 4.95849 0.605851C3.98954 1.00726 3.1095 1.59627 2.369 2.33901C1.62649 3.07963 1.0377 3.9597 0.63646 4.92864C0.235224 5.89758 0.0294616 6.93627 0.031002 7.985C0.0295928 9.0338 0.235512 10.0725 0.636922 11.0415C1.03833 12.0104 1.62731 12.8905 2.37 13.631C3.11047 14.3734 3.99038 14.9622 4.95914 15.3634C5.92791 15.7647 6.96643 15.9705 8.015 15.969V15.97ZM8.015 0.960007C8.93761 0.958732 9.85137 1.1398 10.7038 1.49281C11.5562 1.84582 12.3304 2.36381 12.982 3.01701C13.6356 3.66873 14.1539 4.44326 14.5071 5.29603C14.8603 6.1488 15.0414 7.06299 15.04 7.986C15.0413 8.90861 14.8602 9.82238 14.5072 10.6748C14.1542 11.5272 13.6362 12.3014 12.983 12.953C12.3313 13.6064 11.5569 14.1244 10.7043 14.4775C9.85176 14.8305 8.93778 15.0115 8.015 15.01C7.09238 15.0113 6.1786 14.8303 5.32618 14.4773C4.47377 14.1243 3.69954 13.6062 3.048 12.953C2.3948 12.3014 1.87682 11.5272 1.52381 10.6748C1.1708 9.82238 0.989726 8.90861 0.991001 7.986C0.989671 7.06338 1.17072 6.1496 1.52373 5.29719C1.87674 4.44478 2.39476 3.67054 3.048 3.01901C3.69937 2.3654 4.47353 1.84702 5.32595 1.49366C6.17837 1.1403 7.09224 0.958939 8.015 0.960007ZM6.586 6.464C5.92249 6.46321 5.28578 6.72567 4.81558 7.19381C4.34538 7.66195 4.08012 8.2975 4.078 8.961C4.08038 9.62433 4.34576 10.2596 4.81593 10.7275C5.2861 11.1955 5.92267 11.4578 6.586 11.457H10.095C10.2223 11.457 10.3444 11.4064 10.4344 11.3164C10.5244 11.2264 10.575 11.1043 10.575 10.977C10.575 10.8497 10.5244 10.7276 10.4344 10.6376C10.3444 10.5476 10.2223 10.497 10.095 10.497H6.586C5.732 10.497 5.038 9.807 5.038 8.961C5.038 8.114 5.732 7.424 6.586 7.424H10.393L9.411 8.407C9.32096 8.49704 9.27037 8.61917 9.27037 8.7465C9.27037 8.87384 9.32096 8.99596 9.411 9.086C9.50104 9.17604 9.62316 9.22663 9.7505 9.22663C9.87783 9.22663 9.99995 9.17604 10.09 9.086L11.889 7.286C11.9338 7.24111 11.9693 7.18776 11.9933 7.12905C12.0173 7.07034 12.0295 7.00744 12.029 6.944C12.03 6.821 11.983 6.697 11.889 6.602L10.089 4.803C10.0443 4.75849 9.99137 4.7232 9.93308 4.69916C9.87479 4.67511 9.81234 4.66279 9.74929 4.66288C9.68624 4.66297 9.62382 4.67548 9.56561 4.6997C9.50739 4.72391 9.45451 4.75936 9.41 4.804C9.36548 4.84865 9.33019 4.90163 9.30615 4.95992C9.28211 5.01821 9.26978 5.08066 9.26987 5.14371C9.26996 5.20676 9.28247 5.26918 9.30669 5.32739C9.3309 5.38561 9.36635 5.43849 9.411 5.483L10.393 6.464H6.586Z" fill="#6A0DAD"/>
</g>
<defs>
<clipPath id="clip0_2424_5198">
<rect width="16" height="16" fill="white" transform="matrix(-1 0 0 1 16 0)"/>
</clipPath>
</defs>
</svg>
