<svg width="30" height="30" viewBox="0 0 30 30" fill="none" xmlns="http://www.w3.org/2000/svg">
<circle cx="15" cy="15" r="15" fill="white"/>
<path d="M14.9999 20.9746C15.1648 20.9746 15.3053 20.9165 15.4222 20.8003C15.5391 20.6842 15.5973 20.543 15.5973 20.3771V11.0653L18.7581 14.2306C18.8725 14.3435 19.0144 14.4017 19.1826 14.4017C19.3537 14.4017 19.4957 14.3452 19.6098 14.2323C19.7233 14.1178 19.7797 13.975 19.7797 13.8041C19.7797 13.6364 19.7226 13.4953 19.6074 13.3791L15.4251 9.198C15.3099 9.08177 15.1684 9.02537 15.0002 9.02537C14.8317 9.02537 14.6901 9.08177 14.5753 9.198L10.393 13.3791C10.278 13.4953 10.2203 13.6364 10.2203 13.8041C10.2203 13.9751 10.2771 14.1178 10.3907 14.2323C10.5043 14.3452 10.6467 14.4017 10.8178 14.4017C10.9857 14.4017 11.1274 14.3436 11.2426 14.2307L14.4027 11.0654V20.3771C14.4027 20.5431 14.4608 20.6842 14.5781 20.8003C14.6948 20.9165 14.8357 20.9746 15.0005 20.9746H14.9999Z" fill="black" fill-opacity="0.4"/>
</svg>
