<svg width="24" height="24" viewBox="0 0 24 24" fill="none" xmlns="http://www.w3.org/2000/svg">
<path d="M2.59323 10.7458C2.8778 10.7589 3.10664 10.9986 3.10788 11.283L3.11569 13.2947L4.98972 14.1072C5.1394 14.1722 5.23887 14.2983 5.28464 14.4382C5.48527 14.514 5.63526 14.7051 5.6362 14.9353L5.64401 17.0232L7.49362 17.8416C7.60093 17.8891 7.68054 17.9697 7.73386 18.0623C7.97775 18.1136 8.1634 18.3307 8.16452 18.5867L8.17429 21.1804C8.17541 21.4707 7.9388 21.6976 7.6489 21.6843L7.2778 21.6667C6.99354 21.6534 6.76328 21.4146 6.76218 21.1296L6.75436 19.0232L4.67722 18.1052C4.56734 18.0567 4.48842 17.9734 4.436 17.8826C4.32126 17.788 4.2345 17.6478 4.23386 17.4783L4.22507 15.3064L2.07272 14.3728H2.07175C1.97093 14.3288 1.90103 14.2548 1.85104 14.1843H1.85007C1.76394 14.0904 1.70627 13.9655 1.70554 13.8259L1.69577 11.2322C1.69472 10.9416 1.93217 10.7158 2.22214 10.7292L2.59323 10.7458ZM10.3208 2.90503C11.0275 2.40269 11.9995 2.58093 12.4907 3.29956L19.935 14.1921C20.425 14.9093 20.2532 15.8962 19.5483 16.3972L13.1987 20.9099C12.4918 21.4122 11.5191 21.2342 11.0278 20.5154L3.58347 9.6228V9.62183C3.09381 8.90508 3.26556 7.91874 3.97018 7.41772L10.3208 2.90503ZM11.5786 4.37866C11.4031 4.12195 11.0586 4.06068 10.8091 4.23804L5.03659 8.3396C4.78528 8.51821 4.72223 8.87411 4.8989 9.13257L11.9409 19.4363C12.1164 19.6926 12.46 19.7542 12.7094 19.5769L18.4819 15.4744C18.7332 15.2958 18.7969 14.9407 18.6206 14.6824L11.5786 4.37866ZM14.3891 15.7595C14.7772 15.484 15.3096 15.5821 15.5786 15.9753C15.8466 16.3673 15.7536 16.9069 15.3676 17.1814C14.9798 17.4571 14.4463 17.3587 14.1772 16.9656C13.9094 16.5738 14.0028 16.0338 14.3891 15.7595ZM20.813 10.4841L22.687 11.2986C22.9155 11.3978 23.0476 11.6427 23.0102 11.8816L22.9839 11.9832L22.8549 12.3289C22.7525 12.6023 22.4477 12.7248 22.1811 12.6091L19.77 11.5632V11.5623C19.6687 11.5182 19.599 11.4454 19.5493 11.3757C19.4629 11.2817 19.4047 11.1574 19.4038 11.0173V11.0164L19.395 8.83667L17.6606 8.07007C17.4351 7.97077 17.3084 7.72456 17.3481 7.48804C17.2339 7.3907 17.1573 7.24719 17.1567 7.08374L17.1489 5.07202L15.2758 4.25952C15.0148 4.14616 14.8794 3.84231 14.979 3.57495L15.1079 3.22925L15.1557 3.13354C15.2863 2.92852 15.5485 2.84708 15.7817 2.948L18.1928 3.99487C18.2942 4.03894 18.3638 4.11236 18.4135 4.18237C18.5002 4.27656 18.5581 4.40076 18.5591 4.54077L18.5678 6.96167L20.477 7.80542C20.6955 7.90196 20.8079 8.13064 20.7856 8.35132C20.795 8.38348 20.8058 8.42615 20.8061 8.47339V8.47437L20.813 10.4841Z" fill="#A889C8" stroke="#A889C8" stroke-width="0.3"/>
</svg>
