<svg width="24" height="24" viewBox="0 0 24 24" fill="none" xmlns="http://www.w3.org/2000/svg">
<g clip-path="url(#clip0_392_1463)">
<path d="M22.8433 11.9307L22.7144 12.2761C22.643 12.4668 22.4313 12.5545 22.241 12.472L19.8301 11.4257C19.7623 11.3964 19.7122 11.3459 19.6714 11.2887C19.6002 11.218 19.5547 11.1219 19.5541 11.0161L19.5453 8.73906L17.7212 7.93254C17.538 7.85185 17.4449 7.63401 17.5135 7.44691L17.5215 7.42583C17.3958 7.36055 17.3073 7.2314 17.3067 7.08318L17.2987 4.97378L15.3353 4.12178C15.1451 4.03918 15.0487 3.81753 15.1197 3.62712L15.2486 3.28171C15.32 3.09106 15.5317 3.0033 15.7221 3.08576L18.133 4.13207C18.2007 4.16145 18.2509 4.21194 18.2915 4.26904C18.3629 4.33987 18.4083 4.43585 18.409 4.54176L18.4185 7.05965L20.4167 7.94297C20.58 8.01511 20.6647 8.19533 20.634 8.36626C20.645 8.40115 20.656 8.43646 20.6563 8.47466L20.6643 10.5839L22.6277 11.436C22.8179 11.5187 22.9143 11.7403 22.8433 11.9307ZM19.4616 16.2745L13.1113 20.7875C12.4736 21.2406 11.5964 21.0809 11.1519 20.4304L3.70775 9.53789C3.26309 8.88778 3.41968 7.99321 4.05727 7.53997L10.4077 3.02705C11.0452 2.57392 11.9225 2.73384 12.3669 3.38404L19.8114 14.2765C20.2558 14.927 20.0991 15.8214 19.4616 16.2745ZM18.7442 14.5975L11.7023 4.29396C11.48 3.96886 11.0414 3.88876 10.7226 4.11536L4.94941 8.2178C4.63062 8.44437 4.55248 8.89186 4.77472 9.21698L11.8166 19.5207C12.0388 19.8458 12.4775 19.9257 12.7963 19.6991L18.5691 15.5967C18.8879 15.3701 18.9664 14.9226 18.7442 14.5975ZM14.4755 15.8818C14.7945 15.6551 15.233 15.7349 15.4552 16.06C15.6776 16.3853 15.5991 16.8326 15.2804 17.0592C14.9617 17.2858 14.5229 17.2057 14.3007 16.8806C14.0785 16.5555 14.1567 16.1081 14.4755 15.8818ZM5.16016 14.5592C5.34231 14.5912 5.48574 14.7473 5.48651 14.9355L5.49476 17.1215L7.43322 17.9784C7.53062 18.0215 7.59978 18.1041 7.63535 18.1996L7.64257 18.1998C7.84744 18.2094 8.01403 18.3828 8.01482 18.5875L8.0247 21.1814C8.0255 21.3857 7.86008 21.544 7.65543 21.5344L7.28478 21.5171C7.07991 21.5075 6.91335 21.3342 6.91255 21.1295L6.90438 18.9261L4.73764 17.9681C4.65482 17.9315 4.59388 17.8649 4.55431 17.7877C4.45472 17.7167 4.38474 17.6059 4.38431 17.4775L4.37546 15.2085L2.13197 14.2349C2.06453 14.2055 2.01395 14.155 1.97344 14.0979C1.90209 14.0271 1.85652 13.9311 1.85597 13.8256L1.84613 11.2317C1.84534 11.0271 2.01073 10.869 2.21539 10.8787L2.58603 10.896C2.79092 10.9052 2.95749 11.0792 2.95828 11.2838L2.96653 13.3932L4.9297 14.2452C5.06079 14.3021 5.14224 14.4261 5.16016 14.5592Z" fill="black" fill-opacity="0.4"/>
<path d="M2.5932 10.7458C2.87777 10.7589 3.1066 10.9986 3.10785 11.283L3.11566 13.2947L4.98969 14.1072C5.13937 14.1722 5.23884 14.2983 5.28461 14.4382C5.48524 14.514 5.63523 14.7051 5.63617 14.9353L5.64398 17.0232L7.49359 17.8416C7.6009 17.8891 7.68051 17.9697 7.73383 18.0623C7.97772 18.1136 8.16337 18.3307 8.16449 18.5867L8.17426 21.1804C8.17538 21.4707 7.93877 21.6976 7.64886 21.6843L7.27777 21.6667C6.99351 21.6534 6.76325 21.4146 6.76215 21.1296L6.75433 19.0232L4.67719 18.1052C4.56731 18.0567 4.48839 17.9734 4.43597 17.8826C4.32123 17.788 4.23447 17.6478 4.23383 17.4783L4.22504 15.3064L2.07269 14.3728H2.07172C1.9709 14.3288 1.901 14.2548 1.85101 14.1843H1.85004C1.76391 14.0904 1.70623 13.9655 1.70551 13.8259L1.69574 11.2322C1.69469 10.9416 1.93214 10.7158 2.22211 10.7292L2.5932 10.7458ZM10.3207 2.90503C11.0275 2.40269 11.9995 2.58093 12.4907 3.29956L19.935 14.1921C20.425 14.9093 20.2532 15.8962 19.5483 16.3972L13.1987 20.9099C12.4918 21.4122 11.5191 21.2342 11.0278 20.5154L3.58344 9.6228V9.62183C3.09378 8.90508 3.26553 7.91874 3.97015 7.41772L10.3207 2.90503ZM11.5786 4.37866C11.4031 4.12195 11.0585 4.06068 10.809 4.23804L5.03656 8.3396C4.78525 8.51821 4.7222 8.87411 4.89886 9.13257L11.9409 19.4363C12.1163 19.6926 12.4599 19.7542 12.7094 19.5769L18.4819 15.4744C18.7332 15.2958 18.7969 14.9407 18.6205 14.6824L11.5786 4.37866ZM14.3891 15.7595C14.7772 15.484 15.3095 15.5821 15.5786 15.9753C15.8466 16.3673 15.7535 16.9069 15.3676 17.1814C14.9797 17.4571 14.4462 17.3587 14.1772 16.9656C13.9094 16.5738 14.0028 16.0338 14.3891 15.7595ZM20.8129 10.4841L22.687 11.2986C22.9154 11.3978 23.0476 11.6427 23.0102 11.8816L22.9838 11.9832L22.8549 12.3289C22.7525 12.6023 22.4476 12.7248 22.1811 12.6091L19.77 11.5632V11.5623C19.6687 11.5182 19.5989 11.4454 19.5493 11.3757C19.4628 11.2817 19.4046 11.1574 19.4037 11.0173V11.0164L19.395 8.83667L17.6606 8.07007C17.4351 7.97077 17.3084 7.72456 17.3481 7.48804C17.2338 7.3907 17.1573 7.24719 17.1567 7.08374L17.1489 5.07202L15.2758 4.25952C15.0148 4.14616 14.8794 3.84231 14.9789 3.57495L15.1078 3.22925L15.1557 3.13354C15.2863 2.92852 15.5485 2.84708 15.7817 2.948L18.1928 3.99487C18.2942 4.03894 18.3637 4.11236 18.4135 4.18237C18.5002 4.27656 18.5581 4.40076 18.559 4.54077L18.5678 6.96167L20.477 7.80542C20.6955 7.90196 20.8078 8.13064 20.7856 8.35132C20.795 8.38348 20.8057 8.42615 20.8061 8.47339V8.47437L20.8129 10.4841Z" stroke="black" stroke-opacity="0.4" stroke-width="0.3"/>
</g>
<defs>
<clipPath id="clip0_392_1463">
<rect width="24" height="24" fill="white"/>
</clipPath>
</defs>
</svg>
